<svg width="200" height="150" viewBox="0 0 200 150" fill="none" xmlns="http://www.w3.org/2000/svg">
<path fill-rule="evenodd" clip-rule="evenodd" d="M179.671 56.1895C178.156 57.5043 177.037 59.7338 176.592 63.783L176.351 63.7565C176.8 59.6768 177.932 57.3773 179.512 56.0063C181.088 54.6388 183.09 54.2138 185.222 53.8358C185.738 53.7443 186.052 53.561 186.23 53.3238C186.408 53.0868 186.466 52.7743 186.424 52.39C186.341 51.6135 185.86 50.6113 185.296 49.5405C185.192 49.3443 185.086 49.1463 184.98 48.9473C184.51 48.0708 184.032 47.178 183.736 46.3743C183.554 45.8805 183.436 45.4105 183.433 44.9908C183.43 44.5683 183.545 44.1903 183.832 43.895C184.112 43.6073 184.502 43.4188 184.945 43.2868C185.389 43.1548 185.896 43.0765 186.417 43.0168C186.69 42.9855 186.966 42.959 187.241 42.933C188.027 42.858 188.799 42.7845 189.433 42.6003C189.858 42.4768 190.206 42.307 190.447 42.0653C190.685 41.8273 190.828 41.511 190.831 41.074C190.834 40.6323 190.694 40.0648 190.355 39.3335C190.018 38.603 189.485 37.7168 188.714 36.6395C186.254 33.2033 183.055 31.2285 180.468 30.1128C179.175 29.5548 178.036 29.212 177.221 29.0088C176.813 28.9073 176.487 28.8405 176.262 28.7995C176.15 28.7788 176.064 28.7645 176.006 28.7555C175.977 28.751 175.955 28.7478 175.94 28.7458L175.924 28.7433L175.92 28.7428H175.919L175.934 28.6225C175.95 28.5023 175.95 28.5025 175.95 28.5025H175.952L175.956 28.5033L175.974 28.5058C175.99 28.508 176.013 28.5113 176.043 28.516C176.103 28.5255 176.192 28.54 176.307 28.561C176.535 28.603 176.867 28.6708 177.279 28.7738C178.105 28.9795 179.257 29.3263 180.564 29.8903C183.179 31.018 186.419 33.0165 188.911 36.4983C189.688 37.5828 190.229 38.4828 190.575 39.2315C190.921 39.9795 191.077 40.584 191.074 41.0755C191.07 41.5718 190.905 41.9503 190.619 42.2365C190.336 42.5193 189.945 42.704 189.501 42.8328C188.843 43.024 188.036 43.101 187.243 43.1765C186.974 43.202 186.705 43.2278 186.445 43.2575C185.927 43.317 185.437 43.3933 185.015 43.519C184.591 43.6453 184.245 43.818 184.006 44.064C183.774 44.3025 183.673 44.613 183.676 44.9893C183.678 45.3685 183.785 45.808 183.963 46.2905C184.253 47.0768 184.721 47.9503 185.19 48.8263C185.297 49.0268 185.405 49.2275 185.51 49.4273C186.069 50.4888 186.576 51.533 186.665 52.3643C186.71 52.7838 186.652 53.1658 186.424 53.4693C186.196 53.7728 185.816 53.9765 185.264 54.0743C183.128 54.4533 181.19 54.8713 179.671 56.1895Z" fill="#781AC9"/>
<path d="M25.0585 108.498H61.9273V113.342H25.0585V108.498Z" fill="#4A90E2"/>
<path opacity="0.9" d="M34.1818 100.086C34.1818 106.39 28.9725 111.501 22.5469 111.501C16.1212 111.501 10.9121 106.39 10.9121 100.086C10.9121 93.7813 16.1212 88.6705 22.5469 88.6705C28.9725 88.6705 34.1818 93.7813 34.1818 100.086Z" fill="#781AC9"/>
<path d="M147.069 122.243C147.069 128.547 141.86 133.658 135.434 133.658C129.008 133.658 123.799 128.547 123.799 122.243C123.799 115.938 129.008 110.827 135.434 110.827C141.86 110.827 147.069 115.938 147.069 122.243Z" fill="#4A90E2"/>
<path fill-rule="evenodd" clip-rule="evenodd" d="M155.568 109.066C152.719 106.808 149.599 103.436 146.884 100.148C146.394 99.5542 145.546 99.5755 144.88 99.8925C144.214 100.21 143.651 100.86 143.758 101.618C143.896 102.591 143.977 103.513 143.975 104.322C143.972 105.133 143.887 105.822 143.699 106.336C143.511 106.848 143.228 107.167 142.837 107.277C142.441 107.389 141.898 107.295 141.168 106.894C140.189 106.355 139.445 105.383 138.894 104.11C138.343 102.838 137.989 101.274 137.783 99.5683C137.775 99.5018 137.714 99.4545 137.648 99.4625C137.581 99.4705 137.534 99.5308 137.542 99.5973C137.75 101.316 138.108 102.905 138.672 104.206C139.235 105.508 140.008 106.532 141.051 107.106C141.803 107.52 142.416 107.647 142.903 107.51C143.396 107.371 143.723 106.972 143.926 106.419C144.129 105.867 144.215 105.145 144.217 104.323C144.219 103.498 144.137 102.564 143.998 101.584C143.912 100.975 144.366 100.406 144.985 100.111C145.604 99.8163 146.309 99.8327 146.697 100.302C149.415 103.594 152.549 106.982 155.418 109.256C156.851 110.393 158.226 111.257 159.455 111.69C160.683 112.123 161.789 112.13 162.656 111.517C163.218 111.119 163.565 110.679 163.727 110.191C163.889 109.704 163.862 109.185 163.702 108.639C163.383 107.555 162.527 106.332 161.505 104.974C161.313 104.72 161.115 104.46 160.913 104.195C158.949 101.618 156.614 98.553 155.932 94.9305C155.849 94.494 155.874 94.2245 155.958 94.0765C155.997 94.007 156.049 93.9625 156.118 93.9365C156.19 93.9095 156.286 93.9005 156.409 93.9165C156.659 93.9492 156.994 94.0797 157.408 94.3057C157.82 94.5305 158.302 94.8443 158.841 95.2328C161.001 96.789 164.065 99.5193 167.343 102.455C167.462 102.561 167.581 102.668 167.701 102.775C170.87 105.615 174.213 108.608 177.104 110.88C178.603 112.058 179.984 113.045 181.159 113.715C181.746 114.051 182.285 114.308 182.763 114.471C183.24 114.634 183.665 114.705 184.023 114.657C184.436 114.601 184.764 114.445 185.004 114.195C185.243 113.945 185.387 113.611 185.452 113.214C185.581 112.425 185.403 111.361 185.006 110.12C184.211 107.634 182.514 104.377 180.48 101.064C180.445 101.007 180.37 100.989 180.313 101.024C180.256 101.059 180.238 101.134 180.273 101.191C182.305 104.499 183.989 107.736 184.775 110.194C185.169 111.425 185.332 112.445 185.212 113.175C185.153 113.538 185.026 113.822 184.829 114.027C184.633 114.231 184.36 114.367 183.99 114.416C183.685 114.457 183.301 114.399 182.841 114.242C182.383 114.086 181.859 113.836 181.279 113.505C180.12 112.843 178.749 111.865 177.253 110.689C174.369 108.423 171.032 105.434 167.859 102.592C167.741 102.486 167.623 102.38 167.505 102.274C164.231 99.3422 161.156 96.6015 158.982 95.0362C158.439 94.6445 157.949 94.3245 157.525 94.093C157.103 93.863 156.736 93.7147 156.441 93.6762C156.292 93.657 156.154 93.6645 156.033 93.7097C155.91 93.756 155.813 93.8395 155.746 93.9575C155.618 94.185 155.61 94.529 155.693 94.9753C156.387 98.658 158.759 101.77 160.718 104.34C160.921 104.606 161.119 104.866 161.311 105.12C162.339 106.485 163.165 107.673 163.469 108.707C163.62 109.221 163.64 109.687 163.497 110.115C163.355 110.541 163.047 110.943 162.516 111.319C161.74 111.869 160.727 111.881 159.535 111.461C158.343 111.042 156.993 110.196 155.568 109.066Z" fill="#781AC9"/>
<path d="M166.971 136.075L134.308 135.413C133.218 135.413 129.381 135.199 129.381 134.109V127.264C129.381 126.174 130.257 125.298 131.347 125.298H166.947C168.037 125.298 176.919 129.988 176.919 129.988C176.919 131.077 168.037 136.075 166.971 136.075Z" fill="#CFDAF9"/>
<path d="M141.318 129.988L131.346 125.298C131.346 125.298 129.38 125.416 129.38 126.695C129.38 127.998 129.18 133.421 129.18 134.345C129.18 135.269 140.276 140.765 140.797 140.765C141.318 140.765 141.318 129.988 141.318 129.988Z" fill="#F2F4FF"/>
<path d="M176.919 140.765H141.318C140.229 140.765 139.352 139.888 139.352 138.799V131.954C139.352 130.864 140.229 129.988 141.318 129.988H176.919C178.008 129.988 178.008 140.765 176.919 140.765Z" fill="#CFDAF9"/>
<path fill-rule="evenodd" clip-rule="evenodd" d="M143.4 131.93C143.4 131.863 143.454 131.809 143.521 131.809H178.031C178.098 131.809 178.153 131.863 178.153 131.93C178.153 131.997 178.098 132.052 178.031 132.052H143.521C143.454 132.052 143.4 131.997 143.4 131.93Z" fill="#781AC9"/>
<path fill-rule="evenodd" clip-rule="evenodd" d="M141.814 133.659C141.814 133.592 141.868 133.538 141.934 133.538H178.032C178.099 133.538 178.153 133.592 178.153 133.659C178.153 133.726 178.099 133.78 178.032 133.78H141.934C141.868 133.78 141.814 133.726 141.814 133.659Z" fill="#781AC9"/>
<path fill-rule="evenodd" clip-rule="evenodd" d="M141.814 135.388C141.814 135.321 141.868 135.267 141.934 135.267H178.032C178.099 135.267 178.153 135.321 178.153 135.388C178.153 135.455 178.099 135.509 178.032 135.509H141.934C141.868 135.509 141.814 135.455 141.814 135.388Z" fill="#781AC9"/>
<path fill-rule="evenodd" clip-rule="evenodd" d="M141.814 137.117C141.814 137.05 141.868 136.996 141.934 136.996H178.032C178.099 136.996 178.153 137.05 178.153 137.117C178.153 137.184 178.099 137.238 178.032 137.238H141.934C141.868 137.238 141.814 137.184 141.814 137.117Z" fill="#781AC9"/>
<path fill-rule="evenodd" clip-rule="evenodd" d="M143.4 138.823C143.4 138.756 143.454 138.702 143.521 138.702H178.031C178.098 138.702 178.153 138.756 178.153 138.823C178.153 138.89 178.098 138.944 178.031 138.944H143.521C143.454 138.944 143.4 138.89 143.4 138.823Z" fill="#781AC9"/>
<path fill-rule="evenodd" clip-rule="evenodd" d="M141.318 130.344C140.425 130.344 139.708 131.061 139.708 131.954V138.799C139.708 139.693 140.425 140.41 141.318 140.41H176.919C177.115 140.41 177.274 140.569 177.274 140.765C177.274 140.961 177.115 141.12 176.919 141.12H141.318C140.033 141.12 138.997 140.085 138.997 138.799V131.954C138.997 130.668 140.033 129.633 141.318 129.633H176.919C177.115 129.633 177.274 129.792 177.274 129.988C177.274 130.184 177.115 130.344 176.919 130.344H141.318Z" fill="#F2F4FF"/>
<path d="M25.0585 117.703H61.9273V122.547H25.0585V117.703Z" fill="#4A90E2"/>
<path d="M68.7032 130.322H105.572V135.166H68.7032V130.322Z" fill="#4A90E2"/>
<path d="M68.7032 121.103H105.572V125.947H68.7032V121.103Z" fill="#4A90E2"/>
<path d="M173.811 100.56H21.6453C20.1543 100.56 18.9561 99.3618 18.9561 97.8708V22.2004C18.9561 20.7094 20.1543 19.5112 21.6453 19.5112H173.811C175.302 19.5112 176.5 20.7094 176.5 22.2004V97.8443C176.527 99.3353 175.302 100.56 173.811 100.56Z" fill="#CFDAF9"/>
<path d="M62.969 67.3262C63.2295 67.35 64.7692 69.1737 64.6035 69.4342C64.4375 69.6712 55.9342 77.2032 55.579 77.2032C55.2237 77.2032 53.471 76.1612 53.5892 75.877C53.684 75.6162 62.6847 67.3025 62.969 67.3262Z" fill="#4A90E2"/>
<path d="M35.2088 70.1685L42.741 73.745L42.1725 73.5793L51.2443 75.4743C52.5233 75.7348 53.3523 76.99 53.068 78.2693C52.8075 79.5008 51.6468 80.2825 50.4388 80.1403L41.2488 78.9088L41.0828 78.885L40.6803 78.7428L32.7928 75.9715C31.1583 75.403 30.3058 73.603 30.8743 71.9688C31.4425 70.3343 33.2428 69.4815 34.877 70.05C34.9955 70.0738 35.0903 70.121 35.2088 70.1685Z" fill="#131845"/>
<path fill-rule="evenodd" clip-rule="evenodd" d="M22.995 65.2785C23.2482 65.4982 23.4558 65.6295 23.6153 65.6762C23.7854 65.7262 23.9242 65.7305 24.0382 65.7017C24.151 65.6735 24.2486 65.611 24.3338 65.5117C24.5089 65.3075 24.6283 64.9527 24.6936 64.4555C24.8237 63.4662 24.7302 62.0035 24.5611 60.3345C24.4898 59.6305 24.4049 58.889 24.3185 58.1337C24.2011 57.1082 24.0808 56.0572 23.9875 55.0402C23.8254 53.2715 23.7425 51.5825 23.8966 50.2615C23.9277 49.9952 23.9776 49.7885 24.0513 49.6452C24.1259 49.5 24.2395 49.3967 24.3978 49.4C24.539 49.4027 24.6751 49.4925 24.7997 49.6127C24.9285 49.7367 25.0662 49.9142 25.2107 50.134C25.7885 51.0112 26.5317 52.6485 27.331 54.6437C28.9315 58.6397 30.772 64.1132 31.9782 67.9355L31.986 67.9605L30.8522 77.292L35.3867 95.6042L35.381 95.6317C34.9602 97.5847 32.001 101.77 23.6029 103.309C22.291 103.55 21.2463 103.656 20.4212 103.651C19.5972 103.645 18.984 103.528 18.5407 103.316C18.0932 103.102 17.8211 102.791 17.6839 102.41C17.5485 102.034 17.5483 101.601 17.6207 101.144C17.728 100.468 18.002 99.7055 18.2715 98.9557C18.3632 98.7007 18.4543 98.4472 18.5382 98.199C18.7051 97.705 18.8447 97.2295 18.9108 96.7935C18.9771 96.3567 18.9679 95.9702 18.8474 95.6487C18.7305 95.3372 18.4926 95.114 18.151 94.9557C17.8069 94.7965 17.3635 94.7062 16.8514 94.6617C16.0164 94.5892 15.0268 94.6402 14.0346 94.6912C13.8074 94.7027 13.5801 94.7145 13.3544 94.7247C12.1556 94.779 10.9952 94.7925 10.2051 94.5192C9.80627 94.3815 9.48592 94.1652 9.30832 93.8297C9.13077 93.4947 9.10832 93.0637 9.2547 92.5235C9.822 90.4287 10.2691 88.498 9.7236 86.562C9.17947 84.631 7.6389 82.6687 4.16507 80.5412C3.28455 80.0017 2.77525 79.4655 2.58545 78.9257C2.3922 78.3762 2.53895 77.8505 2.90257 77.362C3.26347 76.8772 3.84467 76.4185 4.5478 75.9842C5.25262 75.5492 6.08887 75.1332 6.9682 74.7372C7.84777 74.3412 8.77327 73.9637 9.65685 73.606C9.7283 73.5772 9.7995 73.5485 9.87035 73.5197C10.6765 73.1935 11.4407 72.8845 12.0984 72.5917C12.8158 72.2725 13.3969 71.977 13.765 71.7055C13.9499 71.569 14.0704 71.4462 14.131 71.3385C14.1878 71.2372 14.1886 71.1572 14.147 71.081C13.6186 70.112 12.221 66.8127 10.9017 62.6912C9.582 58.5685 8.3361 53.6097 8.11737 49.3227C8.08987 48.784 8.1139 48.3642 8.18852 48.0557C8.26252 47.7495 8.39252 47.5287 8.59717 47.4272C8.80282 47.3255 9.04332 47.3645 9.28995 47.4802C9.53837 47.597 9.81615 47.8022 10.1164 48.0745C11.3151 49.1617 12.9767 51.4192 14.7344 53.955C15.4433 54.9777 16.1683 56.0465 16.8866 57.1052C17.9544 58.6795 19.0073 60.2317 19.9706 61.5785C20.7757 62.7042 21.515 63.6817 22.1443 64.4042C22.4591 64.7657 22.7443 65.061 22.995 65.2785ZM8.42405 48.1125C8.3574 48.3885 8.33237 48.7812 8.35937 49.3105C8.57652 53.5665 9.8151 58.502 11.1325 62.6172C12.4501 66.7337 13.8422 70.016 14.3598 70.965C14.449 71.1285 14.4314 71.2985 14.3423 71.4572C14.2568 71.6095 14.1037 71.7567 13.9089 71.9005C13.5176 72.189 12.9151 72.4935 12.1969 72.8132C11.5352 73.1075 10.7671 73.4182 9.96202 73.744C9.89087 73.7727 9.81945 73.8017 9.74777 73.8307C8.864 74.1885 7.9425 74.5642 7.0677 74.9582C6.19262 75.3522 5.36712 75.7632 4.67512 76.1905C3.9814 76.619 3.4307 77.0585 3.09692 77.5067C2.76587 77.9515 2.65517 78.3935 2.81405 78.8452C2.97635 79.307 3.4287 79.806 4.29165 80.3345C7.7918 82.4782 9.3895 84.4827 9.95682 86.4962C10.5228 88.5047 10.0545 90.4972 9.4886 92.5867C9.35165 93.0925 9.38367 93.4545 9.52247 93.7165C9.6612 93.9785 9.91907 94.164 10.2843 94.2902C11.0226 94.5455 12.1341 94.5372 13.3435 94.4827C13.5649 94.4727 13.7893 94.461 14.0146 94.4495C15.0077 94.3982 16.0189 94.3462 16.8723 94.4202C17.3967 94.4657 17.872 94.5595 18.2529 94.7357C18.6363 94.9135 18.9296 95.1777 19.0743 95.5637C19.2153 95.9395 19.2197 96.373 19.1504 96.8297C19.081 97.2872 18.9359 97.779 18.7678 98.2765C18.6799 98.5367 18.586 98.798 18.4927 99.0575C18.2256 99.8007 17.9635 100.53 17.8601 101.182C17.7908 101.619 17.7961 102.006 17.9119 102.328C18.026 102.644 18.2512 102.908 18.6454 103.097C19.0439 103.288 19.6171 103.403 20.4228 103.408C21.2274 103.414 22.2559 103.31 23.5592 103.071C31.8575 101.55 34.7227 97.446 35.138 95.6077L30.6065 77.307L31.7392 67.9832C30.5335 64.1645 28.6997 58.7127 27.106 54.7337C26.3062 52.737 25.5707 51.1215 25.0085 50.2672C24.8681 50.054 24.7419 49.8935 24.6315 49.787C24.5168 49.6765 24.4383 49.643 24.3928 49.6422C24.3644 49.6415 24.3194 49.6537 24.2668 49.756C24.2131 49.8605 24.1673 50.0327 24.1373 50.2895C23.9863 51.5837 24.0668 53.251 24.2289 55.0182C24.3221 56.0355 24.4416 57.0785 24.5585 58.0995C24.645 58.8547 24.7301 59.598 24.8022 60.31C24.9709 61.9755 25.0682 63.4657 24.9339 64.487C24.8671 64.9952 24.7406 65.4097 24.5177 65.6695C24.4039 65.802 24.2643 65.895 24.0972 65.937C23.9312 65.9785 23.7473 65.9677 23.5469 65.9087C23.3359 65.8467 23.096 65.687 22.8361 65.4615C22.5736 65.2337 22.2801 64.9292 21.9616 64.5635C21.3245 63.832 20.5798 62.8467 19.7735 61.7195C18.8093 60.3712 17.7525 58.8135 16.6827 57.2365C15.9647 56.178 15.2408 55.111 14.5352 54.093C12.7732 51.551 11.1276 49.3187 9.95357 48.254C9.66062 47.9882 9.4036 47.8015 9.1869 47.6995C8.96842 47.597 8.8135 47.5907 8.70465 47.6445C8.59485 47.699 8.49132 47.8342 8.42405 48.1125Z" fill="#4A90E2"/>
<path fill-rule="evenodd" clip-rule="evenodd" d="M46.1715 80.2345L57.5237 96.2935L61.877 93.216L49.5277 75.747L49.519 75.7348C48.0082 73.6485 44.968 73.537 43.2832 75.4323L43.274 75.443L28.982 91.868L33.0037 95.3675L46.1715 80.2345Z" fill="#4A90E2"/>
<path d="M53.3757 90.989L57.6865 96.2948C57.6865 96.2948 61.5237 94.8973 61.6185 93.8788C61.7132 92.8603 61.3815 92.7655 61.3815 92.7655L57.9945 87.4835L53.3757 90.989Z" fill="#F2F2F2"/>
<path d="M56.5258 94.6365L56.6443 94.5655C56.7865 94.4945 56.9523 94.5183 57.0943 94.5893C57.568 94.897 58.8235 95.584 59.8893 95.1578C61.263 94.6128 59.7235 91.131 59.676 90.752C59.6525 90.4915 61.3105 90.1125 61.6183 90.0178C61.7605 89.9705 61.9263 90.0178 61.9973 90.16C62.4 90.8468 62.921 93.7365 63.7265 93.997C64.5555 94.2813 69.7428 95.963 71.4245 96.1763C71.8745 96.2235 72.064 96.5078 72.3483 96.8393C72.9168 97.5025 72.964 98.3315 72.4903 98.9948C71.5903 100.321 58.326 100.369 57.2365 98.971C57.0233 98.7105 56.3838 98.2368 56.2653 95.0155C56.2653 94.8735 56.36 94.7075 56.5258 94.6365Z" fill="#781AC9"/>
<path d="M63.111 93.973C63.04 94.044 62.9453 94.115 62.8268 94.1388C62.7085 94.1625 62.6137 94.1388 62.519 94.0678C62.4242 93.9968 62.353 93.8783 62.353 93.7835L62.3295 93.6413C62.3057 93.452 62.282 93.2625 62.2582 93.073C62.211 92.694 62.1872 92.315 62.211 91.9123C62.2347 91.5095 62.2582 91.107 62.4477 90.6805C62.5425 90.4675 62.6847 90.2543 62.898 90.0648C63.111 89.8753 63.419 89.7568 63.7032 89.7568C63.8452 89.7568 63.9875 89.7568 64.1295 89.8043C64.2717 89.828 64.4612 89.899 64.6032 90.041C64.769 90.1833 64.8637 90.3728 64.8875 90.5385C64.935 90.7043 64.935 90.8465 64.9112 90.9885C64.8875 91.249 64.8165 91.4623 64.7217 91.6518C64.6507 91.8413 64.5322 92.0308 64.4375 92.1965C64.0585 92.836 63.5847 93.4045 63.111 93.973ZM62.732 93.6888C63.111 93.073 63.4427 92.4098 63.7032 91.7703C63.8217 91.4623 63.9165 91.107 63.9165 90.87C63.9165 90.8228 63.9165 90.7753 63.8927 90.7753C63.8927 90.7753 63.8927 90.799 63.9165 90.799C63.94 90.8228 63.94 90.799 63.8927 90.799C63.869 90.799 63.8217 90.799 63.7742 90.799C63.6795 90.799 63.6322 90.8228 63.561 90.87C63.49 90.9175 63.419 91.0123 63.348 91.1308C63.2057 91.3675 63.111 91.699 63.04 92.0308C62.969 92.3623 62.9215 92.7175 62.898 93.073C62.8742 93.2625 62.8742 93.4283 62.8742 93.6178V93.7598C62.8742 93.736 62.8505 93.7125 62.8268 93.7125C62.8033 93.665 62.7557 93.6888 62.732 93.6888Z" fill="#781AC9"/>
<path d="M33.5748 71.4713L32.343 66.9L32.179 66.0948C32.2738 66.071 35.1373 65.2978 35.6585 63.166L39.9463 65.1235C38.999 69.0318 35.4933 70.9503 33.5748 71.4713Z" fill="#9B691F"/>
<path fill-rule="evenodd" clip-rule="evenodd" d="M39.9463 65.1235L36.8405 64.371L37.7085 69.0362C38.7008 68.0532 39.5488 66.7635 39.9463 65.1235Z" fill="#68440D"/>
<path d="M63.0158 94.3282C62.921 94.3282 62.779 94.3047 62.708 94.2335C62.6133 94.1625 62.5658 94.044 62.5658 93.9257C62.5658 93.8072 62.6132 93.6887 62.6842 93.594L62.779 93.4757C62.8975 93.3335 63.0395 93.1915 63.158 93.0492C63.4185 92.765 63.7027 92.5045 64.0107 92.2677C64.3185 92.0307 64.674 91.794 65.1475 91.6755C65.3845 91.6045 65.645 91.5807 65.9293 91.6517C66.2135 91.6992 66.5215 91.8887 66.6872 92.1017C66.782 92.2202 66.853 92.315 66.924 92.457C66.995 92.5992 67.0425 92.7887 67.0425 92.9782C67.0188 93.1915 66.9477 93.381 66.8292 93.523C66.711 93.6415 66.6162 93.7362 66.4977 93.8072C66.2845 93.9492 66.0713 94.0205 65.8583 94.0677C65.6688 94.1152 65.4555 94.1625 65.266 94.1862C64.887 94.2335 64.508 94.2572 64.129 94.281C63.7502 94.3047 63.3948 94.281 63.0158 94.3282ZM62.9922 93.831C63.3475 93.8545 63.7265 93.7597 64.0817 93.6887C64.437 93.6177 64.7923 93.523 65.124 93.4045C65.4555 93.2862 65.7873 93.144 65.953 92.9782C66.0003 92.9307 66.024 92.9072 66.024 92.8835C66.024 92.8597 66.0003 92.8835 66.0003 92.9072C66.0003 92.9307 66.0003 92.9307 65.9765 92.9072C65.953 92.8835 65.9293 92.836 65.9055 92.8125C65.8583 92.765 65.8108 92.7412 65.7398 92.7177C65.6688 92.694 65.5502 92.694 65.4317 92.7177C65.1712 92.765 64.8632 92.8835 64.5555 93.0255C64.2475 93.1677 63.9395 93.3572 63.6317 93.5467C63.4895 93.6415 63.3475 93.7597 63.1818 93.8545L63.087 93.9257C63.1105 93.902 63.1105 93.8782 63.1105 93.8545C63.1105 93.831 63.087 93.8072 63.0633 93.8072C63.0395 93.831 62.9922 93.831 62.9922 93.831Z" fill="#781AC9"/>
<path fill-rule="evenodd" clip-rule="evenodd" d="M66.7832 94.1823C66.9555 94.3793 66.9355 94.6785 66.7387 94.8508L65.4122 96.0113C65.2155 96.1838 64.916 96.1638 64.7437 95.9668C64.5715 95.77 64.5915 95.4707 64.7885 95.2982L66.1147 94.1377C66.3117 93.9655 66.611 93.9855 66.7832 94.1823Z" fill="#4A90E2"/>
<path d="M39.0458 87.3887L36.1323 100.511L29.737 100.7C25.734 100.819 22.6312 97.2185 23.3655 93.2627L23.6971 91.4152L39.0458 87.3887Z" fill="#4A90E2"/>
<path fill-rule="evenodd" clip-rule="evenodd" d="M35.398 59.273C33.914 59.9115 34.5922 62.272 35.0697 63.5067L36.947 63.812L37.4542 66.046C37.7472 66.5955 39.391 68.438 40.1175 69.2142C40.3302 69.4417 40.4917 69.6145 40.5615 69.695C41.0827 70.287 43.238 66.8762 43.238 66.8762C43.238 66.8762 44.0422 67.307 44.2892 67.0157C44.1145 65.9527 44.1145 64.576 44.1145 64.5205C44.1145 64.5015 44.1327 64.496 44.1662 64.4862C44.27 64.4552 44.5202 64.381 44.8292 63.7257C45.2935 62.741 45.8672 61.2152 45.8672 61.2152C45.8672 61.2152 45.441 58.9177 44.825 57.994C44.2092 57.0702 37.435 58.373 35.398 59.273Z" fill="#9B691F"/>
<path d="M43.194 63.971C43.3003 63.838 43.2893 63.6527 43.1698 63.5575C43.05 63.462 42.8673 63.4925 42.761 63.6255C42.655 63.7585 42.6658 63.9435 42.7855 64.039C42.905 64.1345 43.088 64.104 43.194 63.971Z" fill="white" fill-opacity="0.67"/>
<path d="M58.4685 98.947C59.037 99.0418 61.003 98.7575 64.39 99.0418C72.0645 99.6813 72.5383 97.9048 72.6093 97.81C72.633 97.7628 72.6803 97.7155 72.704 97.668C72.7275 97.6443 72.7278 97.6208 72.7278 97.597L72.7513 97.5733V97.597C72.7513 97.597 73.9592 100.7 69.459 100.676C67.185 100.653 61.074 101.126 58.3502 100.51C57.45 100.297 56.7395 99.6103 56.55 98.6865C56.408 98.0233 56.3133 97.2653 56.408 96.768C56.479 96.531 56.5262 98.5918 58.4685 98.947Z" fill="#4A90E2"/>
<path fill-rule="evenodd" clip-rule="evenodd" d="M53.2565 100.92L27.9862 100.502L28.0782 94.9293L55.3205 95.3793H55.3237C58.6782 95.4428 60.7707 99.0763 59.0817 102L59.078 102.006L50.0972 117.361L45.2862 114.547L53.2565 100.92Z" fill="#4A90E2"/>
<path d="M49.8703 78.1745L51.1493 82.059L53.968 80.4482L55.9577 79.0745C56.2655 79.0983 57.6867 76.7533 57.6867 76.7533C57.071 75.5928 55.2708 75.3085 54.797 75.3085C54.039 75.3085 51.6468 74.953 51.6468 74.953C51.6468 74.953 49.5388 77.7955 49.8703 78.1745Z" fill="#9B691F"/>
<path d="M50.9605 76.0427L52.2395 74.0295L52.4763 73.6505L52.6423 73.5792L54.537 72.6792C54.916 72.4897 55.3898 72.6555 55.5793 73.0582C55.745 73.4135 55.6265 73.8635 55.295 74.053L53.5185 75.1662L53.9213 74.7162L53.4948 77.0612C53.3528 77.8192 52.6423 78.3165 51.8843 78.1745C51.1263 78.0322 50.6288 77.3217 50.771 76.5637C50.7948 76.3507 50.8658 76.1847 50.9605 76.0427Z" fill="#9B691F"/>
<path d="M44.4422 63.6522C44.358 63.7577 44.204 63.774 44.0995 63.6885L43.1905 62.9442C43.1432 62.8967 43.1432 62.8967 43.1432 62.8967C43.1195 62.8967 43.1432 62.8967 43.0957 62.8967H42.8115L42.2195 62.8732V62.3757L42.8115 62.352H43.0957C43.167 62.352 43.2617 62.352 43.3327 62.3995C43.4275 62.423 43.4985 62.4942 43.5222 62.5177L44.4667 63.2202C44.5767 63.302 44.597 63.459 44.5112 63.566L44.4422 63.6522Z" fill="#131845"/>
<path d="M35.8248 63.1813C35.8248 63.1813 35.3038 64.555 34.9958 64.2945C34.688 64.034 31.9168 62.2338 33.1958 58.6808C34.4748 55.128 35.8013 54.7253 36.6538 54.7015C36.6538 54.7015 37.6013 53.6595 38.6673 53.5648C40.5385 53.3753 44.2808 55.2938 46.223 58.0888C47.0048 59.202 46.8863 60.86 46.6968 61.3338C46.1283 62.8023 45.2755 60.7415 44.565 60.5283C42.978 60.0073 39.4488 62.897 39.212 62.4943C38.975 62.0918 39.0225 61.2628 38.7145 61.6653C38.383 62.068 38.1225 61.6653 38.1698 61.239C38.2173 60.8125 37.4593 59.1073 35.967 60.0548C34.451 60.9785 35.8248 63.1813 35.8248 63.1813Z" fill="#131845"/>
<path d="M34.0012 65.479C33.9065 65.2422 33.6222 65.1475 33.409 65.2657C33.1722 65.408 29.1692 66.829 26.5875 68.9135C23.7689 71.211 20.9976 75.8535 20.7844 83.433C20.5476 92.1495 22.7977 96.4605 23.3899 96.2947C24.5031 95.9867 35.2567 96.0815 35.1145 92.576C34.9725 89.0705 36.512 82.533 36.1567 80.7565C35.8015 78.98 38.5965 71.4952 36.9147 70.1215C35.541 69.0082 34.546 66.8527 34.0012 65.479Z" fill="#781AC9"/>
<path fill-rule="evenodd" clip-rule="evenodd" d="M63.9047 67.88C63.9912 67.9783 63.982 68.1278 63.8837 68.2143L60.2835 71.3883C60.1852 71.4748 60.0357 71.4653 59.9492 71.3673C59.8627 71.269 59.872 71.1195 59.9702 71.033L63.5705 67.859C63.6687 67.7725 63.8182 67.782 63.9047 67.88Z" fill="#E6E6E6"/>
<path d="M43.096 119.649C43.096 119.649 44.7013 115.209 44.796 115.019C44.8908 114.83 44.8908 114.309 45.1988 114.024C45.5065 113.716 46.506 111.065 46.7438 111.501C47.0043 111.477 48.5203 114.675 51.9073 114.367C52.997 114.959 51.2678 115.504 51.102 116.001C50.9363 116.499 49.823 118.891 49.7755 119.104C49.7045 119.317 47.6913 122.089 46.1515 121.52C44.612 120.952 43.096 119.649 43.096 119.649Z" fill="#F2F2F2"/>
<path d="M43.002 117.541L43.1915 117.517C43.4048 117.493 43.5943 117.588 43.7125 117.754C44.1628 118.37 45.2285 120.715 46.7445 120.667C48.6867 120.62 49.729 117.777 49.8473 117.28C49.942 116.948 50.5815 116.878 50.9842 116.878C51.1737 116.878 51.3633 117.019 51.387 117.209C51.5765 118.251 51.4105 121.473 52.287 122.183C53.1632 122.894 55.8872 124.788 57.8532 125.831C58.3742 126.115 58.4928 126.542 58.6823 127.086C59.0613 128.176 58.8717 129.431 57.877 129.834C56.503 130.355 42.7887 125.689 41.6992 124.197C41.4387 123.841 41.1545 121.946 42.481 117.92C42.5757 117.706 42.7652 117.564 43.002 117.541Z" fill="#CFDAF9"/>
<path fill-rule="evenodd" clip-rule="evenodd" d="M55.5233 123.193C55.6458 123.515 55.484 123.876 55.1615 123.999L52.9825 124.828C52.6603 124.95 52.2995 124.789 52.1768 124.466C52.0543 124.144 52.216 123.783 52.5385 123.661L54.7175 122.832C55.0398 122.709 55.4005 122.871 55.5233 123.193Z" fill="#781AC9"/>
<path d="M32.8872 72.5138L35.9192 79.809L37.435 83.4568L38.193 85.2805L38.3825 85.7305L38.4772 85.9438C38.4772 85.92 38.4535 85.92 38.4535 85.8965L38.43 85.8728L38.4062 85.8253C38.264 85.6123 38.0747 85.4463 37.8615 85.3515C37.6482 85.2568 37.4115 85.2333 37.1745 85.2568C37.0562 85.2805 36.9377 85.3043 36.843 85.3515C36.8192 85.3753 36.772 85.3753 36.7482 85.399C36.7245 85.399 36.7245 85.4228 36.7007 85.4228C36.6772 85.4228 36.6535 85.47 36.6772 85.4463L36.8902 85.328L38.572 84.3095L41.9117 82.2725L48.615 78.222C49.7282 77.5353 51.1967 77.8905 51.86 79.0275C52.4995 80.0933 52.2152 81.467 51.1967 82.1778L44.754 86.749L41.5565 89.1178L39.9457 90.2545L39.7562 90.3968C39.7562 90.3968 39.6852 90.444 39.638 90.4678L39.472 90.5625C39.3772 90.61 39.2352 90.681 39.1405 90.7283C38.7377 90.9178 38.3115 91.0363 37.8615 91.0838C36.985 91.202 36.0612 91.06 35.2797 90.681C34.877 90.4915 34.498 90.231 34.1665 89.9468C33.8347 89.6388 33.527 89.3073 33.3137 88.9045L33.219 88.7625L33.148 88.6203L33.0057 88.3598L32.8872 88.1228L32.6742 87.6965L31.7977 85.9438L30.045 82.4383L26.5395 75.4508C25.663 73.7218 26.3737 71.6138 28.1027 70.7373C29.8317 69.861 31.94 70.5715 32.8162 72.3005C32.8162 72.3715 32.8637 72.4428 32.8872 72.5138Z" fill="#781AC9"/>
<path d="M32.8872 72.5138L35.9192 79.809L37.435 83.4568L38.193 85.2805L38.3825 85.7305L38.4772 85.9438C38.4772 85.92 38.4535 85.92 38.4535 85.8965L38.43 85.8728L38.4062 85.8253C38.264 85.6123 38.0747 85.4463 37.8615 85.3515C37.6482 85.2568 37.4115 85.2333 37.1745 85.2568C37.0562 85.2805 36.9377 85.3043 36.843 85.3515C36.8192 85.3753 36.772 85.3753 36.7482 85.399C36.7245 85.399 36.7245 85.4228 36.7007 85.4228C36.6772 85.4228 36.6535 85.47 36.6772 85.4463L36.8902 85.328L38.572 84.3095L41.9117 82.2725L48.615 78.222C49.7282 77.5353 51.1967 77.8905 51.86 79.0275C52.4995 80.0933 52.2152 81.467 51.1967 82.1778L44.754 86.749L41.5565 89.1178L39.9457 90.2545L39.7562 90.3968C39.7562 90.3968 39.6852 90.444 39.638 90.4678L39.472 90.5625C39.3772 90.61 39.2352 90.681 39.1405 90.7283C38.7377 90.9178 38.3115 91.0363 37.8615 91.0838C36.985 91.202 36.0612 91.06 35.2797 90.681C34.877 90.4915 34.498 90.231 34.1665 89.9468C33.8347 89.6388 33.527 89.3073 33.3137 88.9045L33.219 88.7625L33.148 88.6203L33.0057 88.3598L32.8872 88.1228L32.6742 87.6965L31.7977 85.9438L30.045 82.4383L26.5395 75.4508C25.663 73.7218 26.3737 71.6138 28.1027 70.7373C29.8317 69.861 31.94 70.5715 32.8162 72.3005C32.8162 72.3715 32.8637 72.4428 32.8872 72.5138Z" fill="white" fill-opacity="0.07"/>
<path d="M43.2173 63.9737C43.3235 63.8407 43.3493 63.685 43.275 63.6257C43.2008 63.5665 43.0545 63.6262 42.9485 63.7592C42.8425 63.8922 42.8165 64.048 42.8908 64.1072C42.965 64.1665 43.1113 64.1067 43.2173 63.9737Z" fill="#781AC9"/>
<path fill-rule="evenodd" clip-rule="evenodd" d="M41.7713 67.1595L41.7707 67.1622C41.7705 67.1652 41.7697 67.17 41.7692 67.1765C41.768 67.1898 41.7665 67.21 41.7663 67.2355C41.7658 67.2865 41.7695 67.3568 41.787 67.4333C41.8217 67.584 41.9075 67.754 42.119 67.8598C42.1907 67.8958 42.2197 67.983 42.184 68.0548C42.148 68.1265 42.0607 68.1555 41.989 68.1198C41.6795 67.965 41.552 67.7085 41.5037 67.4983C41.4797 67.394 41.4748 67.2998 41.4758 67.2318C41.476 67.1978 41.478 67.1695 41.48 67.1492C41.4807 67.1392 41.4817 67.1313 41.4825 67.1253L41.4835 67.118L41.484 67.1155V67.1148V67.1143C41.484 67.1143 41.4842 67.114 41.6275 67.137L41.4842 67.114C41.4967 67.0348 41.5713 66.9808 41.6505 66.9935C41.7298 67.0063 41.7835 67.0805 41.7713 67.1595Z" fill="#131845"/>
<path d="M43.0962 124.599C43.6885 124.955 46.0332 125.452 49.752 127.205C58.1607 131.161 58.4922 128.887 58.6107 128.816C58.658 128.768 58.729 128.745 58.7765 128.697C58.8002 128.673 58.8237 128.65 58.8475 128.65L58.8712 128.626C58.8712 128.626 58.895 128.602 58.8712 128.65C58.8712 128.65 58.895 132.747 50.581 129.905C47.9755 129.005 45.1332 128.2 42.3147 126.352C41.3672 125.736 40.8697 124.647 41.0355 123.534C41.154 122.728 41.3672 121.828 41.6987 121.307C41.841 121.047 41.0592 123.415 43.0962 124.599Z" fill="#781AC9"/>
<path d="M52.0262 122.326C51.9552 122.42 51.813 122.515 51.671 122.539C51.5288 122.562 51.3867 122.539 51.292 122.444C51.1735 122.373 51.1025 122.207 51.0788 122.089L51.055 121.923C51.0313 121.686 50.984 121.449 50.9603 121.212C50.913 120.739 50.8893 120.265 50.8893 119.767C50.913 119.27 50.9603 118.773 51.1973 118.228C51.3155 117.967 51.4815 117.683 51.7658 117.446C52.0498 117.209 52.4287 117.067 52.7842 117.044C52.95 117.044 53.1157 117.044 53.3052 117.091C53.4947 117.138 53.708 117.233 53.8975 117.399C54.087 117.565 54.2053 117.802 54.2528 118.015C54.3 118.228 54.3 118.417 54.2762 118.559C54.2527 118.891 54.158 119.128 54.0633 119.389C53.9685 119.625 53.85 119.839 53.7315 120.052C53.2105 120.904 52.6182 121.615 52.0262 122.326ZM51.5525 121.97C52.0263 121.212 52.4525 120.383 52.7368 119.578C52.8078 119.389 52.879 119.175 52.9263 118.986C52.9738 118.796 52.9972 118.607 52.9972 118.465C52.9972 118.394 52.9738 118.346 52.9738 118.346C52.95 118.346 52.9737 118.37 52.9972 118.394C53.021 118.417 53.021 118.417 52.9738 118.394C52.9263 118.394 52.879 118.394 52.8078 118.37C52.6895 118.37 52.642 118.394 52.5472 118.465C52.4525 118.512 52.3815 118.631 52.2868 118.773C52.121 119.057 51.9787 119.46 51.9077 119.886C51.813 120.312 51.7658 120.739 51.7183 121.189C51.6945 121.402 51.6945 121.639 51.6945 121.852V122.018C51.6945 121.994 51.671 121.97 51.6473 121.947C51.6235 121.923 51.5763 121.947 51.5525 121.97Z" fill="#CFDAF9"/>
<path d="M51.908 122.776C51.7895 122.799 51.6237 122.752 51.5052 122.657C51.387 122.562 51.3395 122.42 51.3158 122.278C51.3158 122.136 51.3633 121.97 51.4818 121.876L51.6 121.733C51.766 121.568 51.908 121.378 52.0737 121.212C52.4055 120.881 52.737 120.525 53.1398 120.241C53.5423 119.933 53.9688 119.673 54.5373 119.507C54.8215 119.436 55.153 119.389 55.5083 119.46C55.8635 119.531 56.219 119.744 56.4557 120.028C56.5742 120.17 56.669 120.289 56.74 120.478C56.811 120.644 56.882 120.881 56.882 121.141C56.8585 121.402 56.7637 121.639 56.6215 121.805C56.4795 121.97 56.3373 122.089 56.219 122.16C55.9348 122.326 55.6977 122.42 55.4372 122.491C55.1767 122.562 54.9397 122.61 54.703 122.634C54.2292 122.705 53.7555 122.728 53.2817 122.728C52.8317 122.728 52.358 122.681 51.908 122.776ZM51.8607 122.16C52.3107 122.183 52.7608 122.065 53.187 121.994C53.637 121.899 54.0635 121.781 54.466 121.639C54.6792 121.568 54.8688 121.497 55.0345 121.402C55.224 121.307 55.3663 121.212 55.4845 121.118C55.532 121.07 55.5558 121.023 55.5793 121.023C55.5793 120.999 55.5558 121.023 55.5558 121.07C55.5558 121.094 55.5558 121.094 55.532 121.07C55.5083 121.047 55.4845 120.999 55.4372 120.952C55.3662 120.881 55.3187 120.857 55.224 120.833C55.1292 120.81 55.011 120.81 54.845 120.833C54.5135 120.881 54.1345 121.047 53.7555 121.236C53.3765 121.426 52.9975 121.639 52.6185 121.899C52.429 122.018 52.2632 122.16 52.0737 122.278L51.9555 122.373C51.979 122.349 51.979 122.302 51.979 122.278C51.979 122.255 51.9555 122.231 51.9318 122.207C51.9318 122.16 51.8842 122.16 51.8607 122.16Z" fill="#CFDAF9"/>
<path fill-rule="evenodd" clip-rule="evenodd" d="M60.0243 73.031C60.3665 73.223 60.4885 73.656 60.2965 73.9982L59.1358 76.0672L57.268 77.506C56.957 77.7455 56.511 77.6875 56.2715 77.3767C56.032 77.0657 56.0898 76.6195 56.4008 76.38L58.0385 75.1185L59.057 73.303C59.249 72.9607 59.682 72.839 60.0243 73.031Z" fill="#9B691F"/>
<path fill-rule="evenodd" clip-rule="evenodd" d="M59.9973 74.4845C60.3088 74.7233 60.3678 75.1693 60.1293 75.4808L58.6865 77.3638L56.6333 78.5225C56.2913 78.7155 55.858 78.5948 55.665 78.253C55.4723 77.9113 55.5928 77.4778 55.9348 77.285L57.735 76.269L59.001 74.6165C59.2398 74.3048 59.6858 74.2458 59.9973 74.4845Z" fill="#9B691F"/>
<path d="M75.0348 32.2772C75.0348 30.0115 70.518 30.8665 71.9068 28.546C76.208 21.3586 91.865 10.6782 95.6455 13.8199C100.647 17.9758 75.0348 46.6402 75.0348 32.2772Z" fill="#4A90E2"/>
<path d="M59.8922 29.0103C59.895 27.5115 58.9877 28.8873 59.8922 27.3505C62.6932 22.5907 70.8437 14.7013 73.2937 16.7747C76.5345 19.5175 59.874 38.5115 59.8922 29.0103Z" fill="#4A90E2"/>
<path d="M49.4223 31.3957C48.9913 30.4277 48.803 31.5775 48.943 30.3245C49.376 26.4435 52.3575 18.9975 54.5378 19.6281C57.4215 20.4622 52.1548 37.533 49.4223 31.3957Z" fill="#4A90E2"/>
<path opacity="0.9" d="M53.4178 42.3163C53.4178 48.9115 48.071 54.2583 41.4755 54.2583C34.8803 54.2583 29.5335 48.9115 29.5335 42.3163C29.5335 35.7208 34.8803 30.374 41.4755 30.374C48.071 30.374 53.4178 35.7208 53.4178 42.3163Z" fill="#4A90E2"/>
<path opacity="0.2" d="M37.2692 64.7685C39.166 64.7685 40.7037 63.2307 40.7037 61.334C40.7037 59.437 39.166 57.8995 37.2692 57.8995C35.3722 57.8995 33.8347 59.437 33.8347 61.334C33.8347 63.2307 35.3722 64.7685 37.2692 64.7685Z" fill="black"/>
<path fill-rule="evenodd" clip-rule="evenodd" d="M59.0355 72.6935C59.4517 72.9053 59.617 73.4145 59.4052 73.8308L58.5027 75.602L55.7067 76.7643C55.2755 76.9435 54.7807 76.7393 54.6015 76.308C54.4222 75.877 54.6265 75.382 55.0575 75.2028L57.2785 74.2795L57.8982 73.063C58.1102 72.647 58.6195 72.4815 59.0355 72.6935Z" fill="#9B691F"/>
<path d="M37.2692 64.2707C39.166 64.2707 40.7037 62.7332 40.7037 60.8362C40.7037 58.9395 39.166 57.4017 37.2692 57.4017C35.3722 57.4017 33.8347 58.9395 33.8347 60.8362C33.8347 62.7332 35.3722 64.2707 37.2692 64.2707Z" fill="#781AC9"/>
<path d="M36.9618 63.0392C38.5185 63.0392 39.7805 61.7772 39.7805 60.2205C39.7805 58.6637 38.5185 57.4017 36.9618 57.4017C35.4053 57.4017 34.1432 58.6637 34.1432 60.2205C34.1432 61.7772 35.4053 63.0392 36.9618 63.0392Z" fill="#4A90E2"/>
<path d="M38.115 59.9413C38.115 60.578 37.5988 61.0945 36.9618 61.0945C36.325 61.0945 35.8085 60.578 35.8085 59.9413C35.8085 59.3043 36.325 58.788 36.9618 58.788C37.5988 58.788 38.115 59.3043 38.115 59.9413Z" fill="white" fill-opacity="0.2"/>
<path fill-rule="evenodd" clip-rule="evenodd" d="M34.888 59.5982C35.0173 59.6327 35.0943 59.7652 35.06 59.8947C35.0018 60.1145 35.0033 60.51 35.121 60.9072C35.2383 61.303 35.456 61.653 35.7845 61.834C35.9953 61.95 36.2503 62.037 36.4595 62.0957C36.563 62.1247 36.6523 62.146 36.7153 62.16C36.7468 62.167 36.7718 62.1722 36.7885 62.1755C36.7968 62.177 36.803 62.1782 36.8073 62.179L36.8115 62.18H36.8123C36.944 62.204 37.0315 62.33 37.0078 62.4615C36.984 62.5932 36.8578 62.6807 36.726 62.657L36.7693 62.4185C36.726 62.657 36.7263 62.657 36.726 62.657L36.7253 62.6567L36.7233 62.6565L36.7168 62.6552C36.7115 62.6542 36.7035 62.6527 36.6938 62.6507C36.674 62.6467 36.6458 62.641 36.6105 62.6332C36.5405 62.6177 36.4423 62.5942 36.3288 62.5625C36.1043 62.4995 35.8088 62.4005 35.5508 62.2585C35.0693 61.9935 34.7938 61.5087 34.6563 61.045C34.5195 60.583 34.5055 60.0947 34.5915 59.7705C34.6258 59.641 34.7585 59.564 34.888 59.5982Z" fill="white" fill-opacity="0.2"/>
<path fill-rule="evenodd" clip-rule="evenodd" d="M40.4255 55.0715C39.689 55.7875 38.9637 57.0305 38.4072 58.1525C38.1337 58.7035 37.91 59.2068 37.7547 59.5723C37.677 59.7548 37.6167 59.9025 37.576 60.0038C37.5557 60.0545 37.5402 60.0935 37.53 60.1198C37.525 60.1328 37.5212 60.1425 37.5187 60.1488L37.516 60.1558L37.5155 60.1573L40.4255 55.0715ZM37.5155 60.1573C37.396 60.4698 37.0457 60.6265 36.7332 60.507C36.4207 60.3875 36.2642 60.0373 36.3837 59.7248L36.9495 59.941C36.3837 59.7248 36.3837 59.725 36.3837 59.7248L36.385 59.721L36.3887 59.712C36.3917 59.704 36.396 59.6928 36.4017 59.6783C36.4132 59.649 36.43 59.6068 36.4515 59.5525C36.495 59.4443 36.5585 59.289 36.6397 59.0983C36.8017 58.7168 37.0355 58.1913 37.3217 57.614C37.884 56.4808 38.6857 55.072 39.583 54.2008L39.5845 54.1993L39.5862 54.1978C40.6062 53.2213 41.7107 53.2133 42.5272 53.4605C42.9227 53.5803 43.2497 53.7575 43.4755 53.9018C43.5892 53.9748 43.6805 54.041 43.7447 54.0905C43.777 54.1155 43.8027 54.1363 43.8215 54.152C43.8307 54.1598 43.8385 54.1663 43.8442 54.1713L43.8517 54.1778L43.8545 54.18L43.8557 54.181L43.8562 54.1815C43.8562 54.1818 43.8565 54.1818 43.4605 54.629L43.8565 54.1818C44.107 54.4038 44.1302 54.7865 43.9085 55.037C43.6872 55.2868 43.3057 55.3105 43.0552 55.0908C42.8047 54.871 43.0552 55.0905 43.055 55.0905C43.054 55.0898 43.0515 55.0875 43.0472 55.084C43.039 55.077 43.0247 55.0653 43.0047 55.05C42.9645 55.019 42.9027 54.9738 42.8227 54.9225C42.6607 54.819 42.436 54.6988 42.1762 54.62C41.6827 54.4708 41.0627 54.4625 40.4255 55.0715" fill="#781AC9"/>
<path opacity="0.94" d="M166.465 31.3338H28.9913C27.3098 31.3338 25.9595 29.9835 25.9595 28.3018C25.9595 26.6203 27.3098 25.27 28.9913 25.27H166.465C168.147 25.27 169.497 26.6203 169.497 28.3018C169.497 29.9835 168.147 31.3338 166.465 31.3338Z" fill="white" fill-opacity="0.36"/>
<path d="M37.7437 39.945L32.5565 47.0745C32.5327 47.122 32.4617 47.1458 32.4142 47.1458H31.0642C31.0167 47.1458 30.9932 47.122 31.0167 47.0745L36.204 39.945C36.2277 39.8978 36.2987 39.874 36.3462 39.874H37.6962C37.7675 39.874 37.791 39.8978 37.7437 39.945Z" fill="#CFDAF9"/>
<path d="M40.8228 39.945L35.6355 47.0745C35.6118 47.122 35.5408 47.1458 35.4933 47.1458H34.1433C34.0958 47.1458 34.0723 47.122 34.0958 47.0745L39.283 39.945C39.3068 39.8978 39.3778 39.874 39.4253 39.874H40.7753C40.8465 39.874 40.87 39.8978 40.8228 39.945Z" fill="#CFDAF9"/>
<path d="M90.5015 96.82L85.3142 103.95C85.2905 103.997 85.2195 104.021 85.1722 104.021H83.822C83.7747 104.021 83.751 103.997 83.7747 103.95L88.962 96.82C88.9857 96.7728 89.0567 96.749 89.104 96.749H90.4542C90.5015 96.749 90.5253 96.7728 90.5015 96.82Z" fill="#4A90E2"/>
<path d="M93.5805 96.82L88.3932 103.95C88.3695 103.997 88.2985 104.021 88.2512 104.021H86.901C86.8537 104.021 86.83 103.997 86.8537 103.95L92.041 96.82C92.0647 96.7728 92.1357 96.749 92.183 96.749H93.5332C93.5805 96.749 93.6042 96.7728 93.5805 96.82Z" fill="#4A90E2"/>
<path d="M164.422 42.7623H122.592C122.474 42.7623 122.379 42.6675 122.379 42.549V41.4358C122.379 41.3175 122.474 41.2228 122.592 41.2228H164.422C164.54 41.2228 164.635 41.3175 164.635 41.4358V42.3123C164.635 42.5103 164.635 42.015 164.555 42.2493C164.543 42.2865 164.246 42.7748 164.219 42.803C164.048 42.9815 164.819 42.5815 164.51 42.7415C164.485 42.7548 164.455 42.7623 164.422 42.7623Z" fill="white" fill-opacity="0.36"/>
<path d="M119.584 42.7625H99.072C99.001 42.7625 98.93 42.6915 98.93 42.6205V41.3888C98.93 41.3178 99.001 41.2465 99.072 41.2465H119.584C119.655 41.2465 119.726 41.3178 119.726 41.3888V42.6205C119.726 42.6915 119.655 42.7625 119.584 42.7625Z" fill="white" fill-opacity="0.36"/>
<path d="M141.091 45.8413H122.521C122.45 45.8413 122.379 45.7703 122.379 45.6993V44.444C122.379 44.3728 122.45 44.3018 122.521 44.3018H141.091C141.162 44.3018 141.233 44.3728 141.233 44.444V45.6993C141.233 45.7703 141.162 45.8413 141.091 45.8413Z" fill="white" fill-opacity="0.36"/>
<path d="M119.584 45.8416H99.072C99.001 45.8416 98.93 45.7706 98.93 45.6996V44.4678C98.93 44.3968 99.001 44.3258 99.072 44.3258H119.584C119.655 44.3258 119.726 44.3968 119.726 44.4678V45.6996C119.726 45.7706 119.655 45.8416 119.584 45.8416Z" fill="white" fill-opacity="0.36"/>
<path d="M133.298 53.871H112.786C112.715 53.871 112.644 53.7998 112.644 53.7288V52.497C112.644 52.426 112.715 52.355 112.786 52.355H133.298C133.369 52.355 133.44 52.426 133.44 52.497V53.7288C133.44 53.7998 133.369 53.871 133.298 53.871Z" fill="white" fill-opacity="0.36"/>
<path d="M133.298 56.95H112.786C112.715 56.95 112.644 56.879 112.644 56.808V55.5763C112.644 55.5053 112.715 55.434 112.786 55.434H133.298C133.369 55.434 133.44 55.5053 133.44 55.5763V56.808C133.44 56.879 133.369 56.95 133.298 56.95Z" fill="white" fill-opacity="0.36"/>
<path d="M164.469 45.8416H143.957C143.886 45.8416 143.815 45.7706 143.815 45.6996V44.4678C143.815 44.3968 143.886 44.3258 143.957 44.3258H164.469C164.54 44.3258 164.611 44.3968 164.611 44.4678V45.6996C164.611 45.7706 164.564 45.8416 164.469 45.8416Z" fill="white" fill-opacity="0.36"/>
<path d="M143.697 65.6195H123.185C123.114 65.6195 123.043 65.5483 123.043 65.4773V64.2458C123.043 64.1745 123.114 64.1035 123.185 64.1035H143.697C143.768 64.1035 143.839 64.1745 143.839 64.2458V65.4773C143.839 65.572 143.768 65.6195 143.697 65.6195Z" fill="white" fill-opacity="0.36"/>
<path d="M143.697 68.6986H123.185C123.114 68.6986 123.043 68.6276 123.043 68.5566V67.3248C123.043 67.2538 123.114 67.1826 123.185 67.1826H143.697C143.768 67.1826 143.839 67.2538 143.839 67.3248V68.5566C143.839 68.6513 143.768 68.6986 143.697 68.6986Z" fill="white" fill-opacity="0.36"/>
<path d="M143.697 74.312H123.185C123.114 74.312 123.043 74.241 123.043 74.17V72.9145C123.043 72.8435 123.114 72.7725 123.185 72.7725H143.697C143.768 72.7725 143.839 72.8435 143.839 72.9145V74.1463C143.839 74.241 143.768 74.312 143.697 74.312Z" fill="white" fill-opacity="0.36"/>
<path d="M143.697 77.3913H123.185C123.114 77.3913 123.043 77.32 123.043 77.249V75.9938C123.043 75.9225 123.114 75.8515 123.185 75.8515H143.697C143.768 75.8515 143.839 75.9225 143.839 75.9938V77.2253C143.839 77.32 143.768 77.3913 143.697 77.3913Z" fill="white" fill-opacity="0.36"/>
<path d="M172.611 120.995L148.431 119.234C148.431 119.234 137.931 114.544 139.021 114.544H174.621C175.71 114.544 184.593 119.234 184.593 119.234C184.593 120.3 173.701 120.995 172.611 120.995Z" fill="#CFDAF9"/>
<path fill-rule="evenodd" clip-rule="evenodd" d="M139.021 114.544C137.931 114.544 138.95 125.227 138.95 125.227L148.367 130.139L148.652 128.924L148.986 119.212L139.021 114.544Z" fill="#F2F4FF"/>
<path d="M184.592 129.988L148.827 129.727C148.827 128.377 149.064 118.974 149.064 118.974L184.592 119.211C185.659 119.211 185.659 129.988 184.592 129.988Z" fill="#F2F4FF"/>
<path fill-rule="evenodd" clip-rule="evenodd" d="M64.9938 19.414C61.0675 23.2194 57.0588 28.2928 54.5668 31.8058L54.1377 31.5933C54.977 28.903 55.9275 25.0498 56.066 22.2124C56.1005 21.5046 56.084 20.8674 56.0052 20.3313C55.926 19.7921 55.7863 19.3743 55.5885 19.0896C55.3975 18.8144 55.1525 18.6618 54.8298 18.6369C54.493 18.6109 54.044 18.722 53.4565 19.0453C52.3173 19.6722 51.4945 20.9129 50.9285 22.5668C50.3638 24.2168 50.0662 26.2445 49.9535 28.393C49.7282 32.6885 50.2438 37.418 50.7895 40.4603L50.3125 40.5458C49.7623 37.4793 49.2418 32.711 49.4698 28.3675C49.5835 26.1963 49.885 24.1191 50.47 22.4098C51.0538 20.7042 51.9318 19.3311 53.2228 18.6207C53.8505 18.2752 54.3975 18.1174 54.867 18.1536C55.3508 18.191 55.722 18.4319 55.9868 18.8132C56.2448 19.1849 56.4002 19.6863 56.4847 20.2608C56.5695 20.8385 56.5855 21.5095 56.55 22.236C56.431 24.674 55.7298 27.8195 55.0085 30.3653C57.5185 26.9415 61.1165 22.4969 64.6565 19.066C66.6325 17.1508 68.6025 15.5392 70.3643 14.6011C72.1105 13.671 73.7413 13.3579 74.9553 14.217C75.5495 14.6375 75.8957 15.1765 76.018 15.8048C76.139 16.4254 76.038 17.112 75.781 17.8312C75.268 19.2659 74.108 20.9024 72.6448 22.5558C71.7348 23.5839 70.7003 24.6264 69.6168 25.6405C73.0718 23.1718 76.8993 20.5493 80.5833 18.2185C83.9235 16.1054 87.151 14.2287 89.8788 12.9242C91.2425 12.272 92.4865 11.7603 93.5608 11.4339C94.6293 11.1091 95.554 10.9599 96.2688 11.0561C96.73 11.1182 97.0992 11.3003 97.365 11.6022C97.628 11.9009 97.7697 12.2944 97.821 12.7459C97.923 13.6404 97.6775 14.8321 97.2022 16.1941C96.2477 18.9289 94.32 22.477 92.0895 25.9898C89.8573 29.5055 87.3122 33.0005 85.114 35.6318C84.0155 36.9468 82.9995 38.0508 82.15 38.8343C81.7253 39.2258 81.3375 39.542 80.9977 39.765C80.666 39.9828 80.3498 40.1328 80.0748 40.1495L80.045 39.6658C80.1875 39.657 80.4145 39.568 80.7318 39.3598C81.0408 39.157 81.407 38.8603 81.8213 38.478C82.6493 37.7145 83.65 36.6283 84.7422 35.321C86.9252 32.7078 89.458 29.23 91.6805 25.73C93.9047 22.2267 95.8088 18.716 96.7445 16.0344C97.2142 14.6882 97.4285 13.5824 97.3395 12.8007C97.2955 12.4141 97.1795 12.1249 97.0013 11.9224C96.8258 11.7232 96.571 11.5858 96.204 11.5364C95.5938 11.4543 94.7498 11.5791 93.7018 11.8976C92.6595 12.2143 91.4395 12.715 90.088 13.3614C87.3847 14.6541 84.1755 16.5193 80.8422 18.6281C75.1982 22.1988 69.2138 26.4583 64.7555 29.7938C63.9553 30.423 63.1898 31.0005 62.491 31.5083L62.201 31.12C62.897 30.5863 63.6538 30.0128 64.4605 29.4093C67.0755 27.353 70.059 24.7459 72.2818 22.2345C73.7345 20.5932 74.8438 19.0132 75.3245 17.6681C75.5643 16.9975 75.641 16.4035 75.5425 15.8975C75.4453 15.3992 75.1742 14.9657 74.6752 14.6127C73.703 13.9246 72.309 14.1144 70.592 15.0288C68.8903 15.9352 66.9585 17.5097 64.9938 19.414Z" fill="#781AC9"/>
<path fill-rule="evenodd" clip-rule="evenodd" d="M137.969 116.027C138.001 115.968 138.074 115.946 138.133 115.977L148.152 121.283C148.211 121.314 148.234 121.387 148.203 121.446C148.171 121.505 148.098 121.528 148.039 121.497L138.02 116.191C137.961 116.16 137.938 116.086 137.969 116.027Z" fill="#4A90E2"/>
<path fill-rule="evenodd" clip-rule="evenodd" d="M138.278 117.898C138.309 117.839 138.383 117.817 138.442 117.848L148.153 122.988C148.212 123.019 148.235 123.092 148.204 123.152C148.172 123.211 148.099 123.233 148.04 123.202L138.328 118.062C138.269 118.031 138.247 117.958 138.278 117.898Z" fill="#4A90E2"/>
<path fill-rule="evenodd" clip-rule="evenodd" d="M138.206 119.604C138.238 119.545 138.311 119.522 138.37 119.554L148.153 124.717C148.212 124.749 148.234 124.822 148.203 124.881C148.172 124.94 148.099 124.963 148.039 124.932L138.257 119.768C138.198 119.737 138.175 119.663 138.206 119.604Z" fill="#4A90E2"/>
<path fill-rule="evenodd" clip-rule="evenodd" d="M138.206 121.333C138.238 121.274 138.311 121.251 138.37 121.283L148.153 126.446C148.212 126.478 148.234 126.551 148.203 126.61C148.172 126.669 148.099 126.692 148.039 126.661L138.257 121.497C138.198 121.466 138.175 121.392 138.206 121.333Z" fill="#4A90E2"/>
<path fill-rule="evenodd" clip-rule="evenodd" d="M138.207 123.039C138.238 122.98 138.312 122.957 138.371 122.988L148.153 128.176C148.212 128.207 148.235 128.28 148.203 128.339C148.172 128.399 148.099 128.421 148.04 128.39L138.257 123.202C138.198 123.171 138.175 123.098 138.207 123.039Z" fill="#4A90E2"/>
<path opacity="0.9" fill-rule="evenodd" clip-rule="evenodd" d="M95.3603 28.1813L95.3605 28.179C95.3872 26.7363 94.1818 25.524 92.7008 25.524H48.2895C46.811 25.524 45.6003 26.7348 45.6003 28.213V53.3473C45.6003 54.8255 46.811 56.0363 48.2895 56.0363H55.065C57.19 56.0363 59.0505 57.4628 59.6023 59.515C60.612 63.272 65.7508 63.7448 67.429 60.2353L68.0218 58.9963C68.8868 57.1875 70.7135 56.0363 72.7185 56.0363H92.6713C94.1498 56.0363 95.3603 54.8255 95.3603 53.3473V28.1813ZM48.2895 25.27H92.7008C94.3193 25.27 95.6438 26.5945 95.6143 28.1838V53.3473C95.6143 54.9658 94.29 56.2903 92.6713 56.2903H72.7185C70.8113 56.2903 69.0738 57.3853 68.2508 59.1058L67.6583 60.3448C65.878 64.067 60.428 63.5655 59.357 59.581C58.8353 57.6395 57.0753 56.2903 55.065 56.2903H48.2895C46.6708 56.2903 45.3463 54.9658 45.3463 53.3473V28.213C45.3463 26.5945 46.6708 25.27 48.2895 25.27Z" fill="#4A90E2"/>
<path d="M88.7077 23.4463H46.331C44.7865 23.4463 43.5228 24.71 43.5228 26.2545V50.2372C43.5228 51.7817 44.7865 53.0455 46.331 53.0455H47.4543H52.7962C54.7142 53.0455 56.3937 54.333 56.8915 56.1855C57.9135 59.9875 63.114 60.466 64.8125 56.9145L65.378 55.7322C66.163 54.0905 67.8212 53.0455 69.641 53.0455H88.6797C90.2242 53.0455 91.488 51.7817 91.488 50.2372V26.2265C91.516 24.71 90.2525 23.4463 88.7077 23.4463Z" fill="#781AC9"/>
<path d="M76.2387 42.9075H51.498C50.5432 42.9075 49.7567 42.1213 49.7567 41.1665V27.6025C49.7567 26.6478 50.5432 25.8613 51.498 25.8613H76.2387C77.1937 25.8613 77.98 26.6478 77.98 27.6025V41.1665C77.98 42.1493 77.2217 42.9075 76.2387 42.9075Z" fill="#CFDAF9"/>
<path d="M66.4098 38.4143H60.5968C60.035 38.4143 59.6138 37.9648 59.6138 37.4313C59.6138 36.2518 61.6358 34.8478 62.8153 34.8478H64.3878C65.5673 34.8478 67.4208 36.2518 67.4208 37.4313C67.4208 37.993 66.9715 38.4143 66.4098 38.4143Z" fill="#781AC9"/>
<path d="M65.2872 31.3935C65.2872 30.5227 64.5008 29.8207 63.518 29.8207C62.535 29.8207 61.7487 30.5227 61.7487 31.3935V32.7695C61.7487 33.64 62.535 34.342 63.518 34.342C64.5008 34.342 65.2872 33.64 65.2872 32.7695C65.2872 32.5167 65.2872 31.6462 65.2872 31.3935Z" fill="#781AC9"/>
<path opacity="0.7" d="M84.467 41.2225H46.6677C46.1622 41.2225 45.769 40.8295 45.769 40.324C45.769 39.8185 46.1622 39.4252 46.6677 39.4252H84.467C84.9725 39.4252 85.3657 39.8185 85.3657 40.324C85.3657 40.8295 84.9445 41.2225 84.467 41.2225Z" fill="#4A90E2"/>
<g opacity="0.4">
<path opacity="0.4" d="M54.335 41.0258H46.921C46.528 41.0258 46.219 40.7168 46.219 40.3238C46.219 39.9305 46.528 39.6215 46.921 39.6215H54.335C54.728 39.6215 55.037 39.9305 55.037 40.3238C55.037 40.7168 54.7 41.0258 54.335 41.0258Z" fill="#F0F3F5"/>
</g>
<path opacity="0.94" d="M56.1175 44.2275H51.3155C50.92 44.2275 50.5992 44.5482 50.5992 44.9437C50.5992 45.3392 50.92 45.6597 51.3155 45.6597H56.1175C56.513 45.6597 56.8337 45.3392 56.8337 44.9437C56.8337 44.5482 56.513 44.2275 56.1175 44.2275Z" fill="white" fill-opacity="0.36"/>
<path opacity="0.94" d="M66.9295 46.9518H50.9502C50.7565 46.9518 50.5992 47.1088 50.5992 47.3028C50.5992 47.4965 50.7565 47.6538 50.9502 47.6538H66.9295C67.1232 47.6538 67.2805 47.4965 67.2805 47.3028C67.2805 47.1088 67.1232 46.9518 66.9295 46.9518Z" fill="white" fill-opacity="0.36"/>
<path opacity="0.94" d="M66.9295 48.2715H50.9502C50.7565 48.2715 50.5992 48.4287 50.5992 48.6225C50.5992 48.8165 50.7565 48.9735 50.9502 48.9735H66.9295C67.1232 48.9735 67.2805 48.8165 67.2805 48.6225C67.2805 48.4287 67.1232 48.2715 66.9295 48.2715Z" fill="white" fill-opacity="0.36"/>
<path fill-rule="evenodd" clip-rule="evenodd" d="M99.1448 36.0407H108.523C109.417 36.0407 110.147 35.3215 110.174 34.3867V29.2982C110.174 28.3995 109.422 27.6477 108.523 27.6477H99.1448C98.2463 27.6477 97.4942 28.3995 97.4942 29.2982V34.3902C97.4942 35.289 98.2463 36.0407 99.1448 36.0407ZM110.422 34.3902V29.2982C110.422 28.2625 109.559 27.3995 108.523 27.3995H99.1448C98.109 27.3995 97.246 28.2625 97.246 29.2982V34.3902C97.246 35.426 98.109 36.289 99.1448 36.289H108.523C109.559 36.289 110.393 35.4547 110.422 34.3902Z" fill="#781AC9"/>
<path d="M106.316 34.623H97.1608C96.1498 34.623 95.3073 33.7805 95.3073 32.7695V27.7988C95.3073 26.7878 96.1498 25.9453 97.1608 25.9453H106.316C107.327 25.9453 108.169 26.7878 108.169 27.7988V32.7695C108.141 33.8085 107.327 34.623 106.316 34.623Z" fill="#4A90E2"/>
<g opacity="0.94">
<path opacity="0.94" d="M100.868 32.3205H96.9922C96.7395 32.3205 96.5147 32.124 96.5147 31.8432C96.5147 31.5905 96.7115 31.3657 96.9922 31.3657H100.868C101.12 31.3657 101.345 31.5622 101.345 31.8432C101.317 32.0957 101.12 32.3205 100.868 32.3205Z" fill="white" fill-opacity="0.36"/>
</g>
<g opacity="0.94">
<path opacity="0.94" d="M105.08 33.6965H96.9922C96.7395 33.6965 96.5147 33.5 96.5147 33.219C96.5147 32.9663 96.7115 32.7418 96.9922 32.7418H105.08C105.333 32.7418 105.557 32.9383 105.557 33.219C105.557 33.5 105.333 33.6965 105.08 33.6965Z" fill="white" fill-opacity="0.36"/>
</g>
<path d="M91.151 34.539H81.996C80.9853 34.539 80.1428 33.6965 80.1428 32.6855V27.7148C80.1428 26.7038 80.9853 25.8613 81.996 25.8613H91.151C92.162 25.8613 93.0045 26.7038 93.0045 27.7148V32.6855C93.0045 33.7245 92.1903 34.539 91.151 34.539Z" fill="white"/>
<path d="M85.703 32.236H81.8278C81.575 32.236 81.3503 32.0395 81.3503 31.7588C81.3503 31.506 81.5468 31.2812 81.8278 31.2812H85.703C85.9558 31.2812 86.1805 31.4778 86.1805 31.7588C86.1805 32.0395 85.9558 32.236 85.703 32.236Z" fill="#CFDAF9"/>
<path d="M89.9155 33.6965H81.8278C81.575 33.6965 81.3503 33.5 81.3503 33.219C81.3503 32.9663 81.5468 32.7418 81.8278 32.7418H89.9155C90.1682 32.7418 90.393 32.9383 90.393 33.219C90.3647 33.4718 90.1682 33.6965 89.9155 33.6965Z" fill="#CFDAF9"/>
<path fill-rule="evenodd" clip-rule="evenodd" d="M71.0922 82.054H80.4707C81.3647 82.054 82.0945 81.3347 82.1212 80.4V75.3112C82.1212 74.4127 81.3695 73.6607 80.4707 73.6607H71.0922C70.1935 73.6607 69.4415 74.4127 69.4415 75.3112V80.4035C69.4415 81.302 70.1935 82.054 71.0922 82.054ZM82.3695 80.4035V75.3112C82.3695 74.2757 81.5065 73.4125 80.4707 73.4125H71.0922C70.0565 73.4125 69.1933 74.2757 69.1933 75.3112V80.4035C69.1933 81.4392 70.0565 82.3022 71.0922 82.3022H80.4707C81.5065 82.3022 82.3407 81.468 82.3695 80.4035Z" fill="#781AC9"/>
<path d="M94.4995 81.363H85.3445C84.3335 81.363 83.491 80.5207 83.491 79.5097V74.539C83.491 73.528 84.3335 72.6855 85.3445 72.6855H94.4995C95.5105 72.6855 96.353 73.528 96.353 74.539V79.5097C96.325 80.5487 95.5105 81.363 94.4995 81.363Z" fill="#4A90E2"/>
<g opacity="0.94">
<path opacity="0.94" d="M89.0515 79.0602H85.176C84.9233 79.0602 84.6988 78.8637 84.6988 78.583C84.6988 78.3302 84.8953 78.1055 85.176 78.1055H89.0515C89.3043 78.1055 89.529 78.302 89.529 78.583C89.5008 78.8355 89.3043 79.0602 89.0515 79.0602Z" fill="white" fill-opacity="0.36"/>
</g>
<g opacity="0.94">
<path opacity="0.94" d="M93.264 80.4363H85.176C84.9233 80.4363 84.6988 80.2398 84.6988 79.9588C84.6988 79.706 84.8953 79.4815 85.176 79.4815H93.264C93.5168 79.4815 93.7413 79.678 93.7413 79.9588C93.7413 80.2398 93.5168 80.4363 93.264 80.4363Z" fill="white" fill-opacity="0.36"/>
</g>
<path fill-rule="evenodd" clip-rule="evenodd" d="M119.91 82.7805H129.289C130.183 82.7805 130.912 82.0613 130.939 81.1265V76.038C130.939 75.1393 130.187 74.3875 129.289 74.3875H119.91C119.011 74.3875 118.26 75.1393 118.26 76.038V81.13C118.26 82.0288 119.011 82.7805 119.91 82.7805ZM131.188 81.13V76.038C131.188 75.0023 130.324 74.1393 129.289 74.1393H119.91C118.874 74.1393 118.011 75.0023 118.011 76.038V81.13C118.011 82.1658 118.874 83.0288 119.91 83.0288H129.289C130.324 83.0288 131.159 82.1945 131.188 81.13Z" fill="#781AC9"/>
<path d="M127.081 81.363H117.926C116.915 81.363 116.073 80.5207 116.073 79.5097V74.539C116.073 73.528 116.915 72.6855 117.926 72.6855H127.081C128.092 72.6855 128.934 73.528 128.934 74.539V79.5097C128.906 80.5487 128.092 81.363 127.081 81.363Z" fill="#4A90E2"/>
<g opacity="0.94">
<path opacity="0.94" d="M121.633 79.0602H117.757C117.505 79.0602 117.28 78.8637 117.28 78.583C117.28 78.3302 117.476 78.1055 117.757 78.1055H121.633C121.886 78.1055 122.11 78.302 122.11 78.583C122.082 78.8355 121.886 79.0602 121.633 79.0602Z" fill="white" fill-opacity="0.36"/>
</g>
<g opacity="0.94">
<path opacity="0.94" d="M125.845 80.4363H117.757C117.505 80.4363 117.28 80.2398 117.28 79.9588C117.28 79.706 117.476 79.4815 117.757 79.4815H125.845C126.098 79.4815 126.323 79.678 126.323 79.9588C126.323 80.2398 126.098 80.4363 125.845 80.4363Z" fill="white" fill-opacity="0.36"/>
</g>
<path opacity="0.9" d="M79.335 81.2788H70.18C69.169 81.2788 68.3265 80.4363 68.3265 79.4253V74.4545C68.3265 73.4435 69.169 72.601 70.18 72.601H79.335C80.346 72.601 81.1885 73.4435 81.1885 74.4545V79.4253C81.1885 80.4643 80.374 81.2788 79.335 81.2788Z" fill="#781AC9"/>
<path d="M73.887 78.9757H70.0115C69.7587 78.9757 69.534 78.7792 69.534 78.4985C69.534 78.2457 69.7307 78.021 70.0115 78.021H73.887C74.1398 78.021 74.3643 78.2175 74.3643 78.4985C74.3643 78.7792 74.1398 78.9757 73.887 78.9757Z" fill="#4A90E2"/>
<path d="M78.1267 80.38H70.0387C69.786 80.38 69.5615 80.1835 69.5615 79.9027C69.5615 79.65 69.758 79.4252 70.0387 79.4252H78.1267C78.3795 79.4252 78.604 79.6217 78.604 79.9027C78.576 80.1555 78.3795 80.38 78.1267 80.38Z" fill="#4A90E2"/>
<path opacity="0.9" d="M111.917 81.2788H102.762C101.751 81.2788 100.909 80.4363 100.909 79.4253V74.4545C100.909 73.4435 101.751 72.601 102.762 72.601H111.917C112.928 72.601 113.771 73.4435 113.771 74.4545V79.4253C113.771 80.4643 112.956 81.2788 111.917 81.2788Z" fill="#781AC9"/>
<path d="M106.469 78.9757H102.594C102.341 78.9757 102.117 78.7792 102.117 78.4985C102.117 78.2457 102.313 78.021 102.594 78.021H106.469C106.722 78.021 106.947 78.2175 106.947 78.4985C106.947 78.7792 106.722 78.9757 106.469 78.9757Z" fill="#4A90E2"/>
<path d="M110.709 80.38H102.621C102.369 80.38 102.144 80.1835 102.144 79.9027C102.144 79.65 102.34 79.4252 102.621 79.4252H110.709C110.962 79.4252 111.186 79.6217 111.186 79.9027C111.158 80.1555 110.962 80.38 110.709 80.38Z" fill="#4A90E2"/>
<path d="M170.784 116.084H155.128C153.209 116.084 151.646 114.521 151.646 112.602V75.7465C151.646 73.828 153.209 72.2648 155.128 72.2648H170.784C172.703 72.2648 174.266 73.828 174.266 75.7465V112.602C174.266 114.521 172.703 116.084 170.784 116.084Z" fill="#4A90E2"/>
<path d="M157.638 75.1073H155.057C154.63 75.1073 154.275 74.752 154.275 74.3255C154.275 73.8993 154.63 73.544 155.057 73.544H157.638C158.064 73.544 158.42 73.8993 158.42 74.3255C158.42 74.752 158.088 75.1073 157.638 75.1073Z" fill="#CFDAF9"/>
<path d="M170.832 75.1073H168.25C167.824 75.1073 167.469 74.752 167.469 74.3255C167.469 73.8993 167.824 73.544 168.25 73.544H170.832C171.258 73.544 171.613 73.8993 171.613 74.3255C171.613 74.752 171.282 75.1073 170.832 75.1073Z" fill="#CFDAF9"/>
<g opacity="0.94">
<path opacity="0.94" d="M167.586 113.455H158.301C158.079 113.455 157.898 113.635 157.898 113.858C157.898 114.08 158.079 114.261 158.301 114.261H167.586C167.808 114.261 167.989 114.08 167.989 113.858C167.989 113.635 167.808 113.455 167.586 113.455Z" fill="black" fill-opacity="0.36"/>
</g>
<path fill-rule="evenodd" clip-rule="evenodd" d="M45.5452 113.76C45.6027 113.726 45.6772 113.745 45.7112 113.802C45.9225 114.159 46.7185 115.01 48.1567 115.411C48.2212 115.429 48.259 115.496 48.241 115.561C48.223 115.625 48.1562 115.663 48.0917 115.645C46.5947 115.227 45.7467 114.338 45.5027 113.926C45.4687 113.868 45.4877 113.794 45.5452 113.76Z" fill="#CFDAF9"/>
<path fill-rule="evenodd" clip-rule="evenodd" d="M53.8655 92.3657C53.858 92.2992 53.9058 92.2392 53.9723 92.2317C54.0058 92.228 54.0778 92.2042 54.1918 92.1505C54.301 92.099 54.437 92.026 54.593 91.9345C54.905 91.7522 55.2913 91.5005 55.6953 91.2135C56.5053 90.6372 57.373 89.9272 57.8498 89.354C57.8925 89.3025 57.969 89.2955 58.0205 89.3382C58.072 89.381 58.079 89.4575 58.036 89.5087C57.5385 90.1072 56.6495 90.832 55.8355 91.411C55.4273 91.7012 55.0348 91.957 54.7155 92.1437C54.5558 92.2372 54.413 92.3142 54.295 92.3697C54.1813 92.4232 54.077 92.4637 53.9995 92.4725C53.933 92.48 53.873 92.4322 53.8655 92.3657Z" fill="#CFDAF9"/>
<path fill-rule="evenodd" clip-rule="evenodd" d="M46.3605 116.773C46.418 116.739 46.4923 116.758 46.5265 116.816C46.7378 117.172 47.5335 118.023 48.972 118.425C49.0365 118.443 49.074 118.509 49.056 118.574C49.038 118.638 48.9713 118.676 48.9068 118.658C47.41 118.24 46.5618 117.351 46.318 116.939C46.2838 116.882 46.3028 116.807 46.3605 116.773Z" fill="#CFDAF9"/>
<path fill-rule="evenodd" clip-rule="evenodd" d="M69.2997 27.8272C69.2997 27.7602 69.354 27.706 69.421 27.706H76.0805C76.1475 27.706 76.2017 27.7602 76.2017 27.8272C76.2017 27.8942 76.1475 27.9485 76.0805 27.9485H69.421C69.354 27.9485 69.2997 27.8942 69.2997 27.8272Z" fill="#4A90E2"/>
<path fill-rule="evenodd" clip-rule="evenodd" d="M69.2997 28.7765C69.2997 28.7095 69.354 28.6553 69.421 28.6553H76.0805C76.1475 28.6553 76.2017 28.7095 76.2017 28.7765C76.2017 28.8433 76.1475 28.8975 76.0805 28.8975H69.421C69.354 28.8975 69.2997 28.8433 69.2997 28.7765Z" fill="#4A90E2"/>
<path opacity="0.94" d="M146.12 88.277C146.12 87.392 146.837 86.6747 147.721 86.6747H179.657C180.542 86.6747 181.259 87.392 181.259 88.277V101.628C181.259 102.512 180.542 103.23 179.657 103.23H147.721C146.837 103.23 146.12 102.512 146.12 101.628V88.277Z" fill="#F0F0F0" fill-opacity="0.93"/>
<path d="M146.12 87.4245C146.12 87.0105 146.455 86.6747 146.869 86.6747H180.509C180.923 86.6747 181.259 87.0105 181.259 87.4245V91.3722C181.259 91.7862 180.923 92.122 180.509 92.122H146.869C146.455 92.122 146.12 91.7862 146.12 91.3722V87.4245Z" fill="#781AC9"/>
<path opacity="0.94" d="M147.602 89.4517C147.602 88.8027 148.128 88.2767 148.777 88.2767H149.483C150.132 88.2767 150.658 88.8027 150.658 89.4517C150.658 90.1005 150.132 90.6265 149.483 90.6265H148.777C148.128 90.6265 147.602 90.1005 147.602 89.4517Z" fill="white" fill-opacity="0.36"/>
<path opacity="0.94" d="M151.139 89.4517C151.139 88.8027 151.665 88.2767 152.314 88.2767H154.664C155.313 88.2767 155.839 88.8027 155.839 89.4517C155.839 90.1005 155.313 90.6265 154.664 90.6265H152.314C151.665 90.6265 151.139 90.1005 151.139 89.4517Z" fill="white" fill-opacity="0.36"/>
<path opacity="0.94" d="M173.569 89.4517C173.569 88.8027 174.095 88.2767 174.744 88.2767H178.375C179.024 88.2767 179.55 88.8027 179.55 89.4517C179.55 90.1005 179.024 90.6265 178.375 90.6265H174.744C174.095 90.6265 173.569 90.1005 173.569 89.4517Z" fill="white" fill-opacity="0.36"/>
<path d="M147.829 94.365C147.829 93.8342 148.259 93.4037 148.79 93.4037H154.9C155.431 93.4037 155.861 93.8342 155.861 94.365C155.861 94.896 155.431 95.3262 154.9 95.3262H148.79C148.259 95.3262 147.829 94.896 147.829 94.365Z" fill="#CFDAF9"/>
<path d="M147.829 96.234C147.829 95.9685 148.044 95.7535 148.309 95.7535H155.38C155.646 95.7535 155.861 95.9685 155.861 96.234C155.861 96.4995 155.646 96.7147 155.38 96.7147H148.309C148.044 96.7147 147.829 96.4995 147.829 96.234Z" fill="#CFDAF9"/>
<path d="M147.829 101.04C147.829 100.775 148.044 100.56 148.309 100.56H158.924C159.189 100.56 159.405 100.775 159.405 101.04C159.405 101.306 159.189 101.521 158.924 101.521H148.309C148.044 101.521 147.829 101.306 147.829 101.04Z" fill="#CFDAF9"/>
<path opacity="0.94" d="M146.013 80.694C146.013 79.8967 146.013 79.4982 146.161 79.1907C146.308 78.8855 146.554 78.6392 146.859 78.4922C147.167 78.3442 147.566 78.3442 148.363 78.3442H179.016C179.813 78.3442 180.212 78.3442 180.52 78.4922C180.825 78.6392 181.071 78.8855 181.218 79.1907C181.366 79.4982 181.366 79.8967 181.366 80.694C181.366 81.4912 181.366 81.8897 181.218 82.1972C181.071 82.5025 180.825 82.7487 180.52 82.8957C180.212 83.0437 179.813 83.0437 179.016 83.0437H148.363C147.566 83.0437 147.167 83.0437 146.859 82.8957C146.554 82.7487 146.308 82.5025 146.161 82.1972C146.013 81.8897 146.013 81.4912 146.013 80.694Z" fill="white" fill-opacity="0.36"/>
<path fill-rule="evenodd" clip-rule="evenodd" d="M138.699 114.37C138.783 114.192 138.994 114.116 139.172 114.2L148.865 118.758C149.157 118.895 149.348 119.186 149.347 119.515C149.345 120.391 149.332 123.013 149.261 125.418C149.225 126.619 149.175 127.772 149.104 128.627C149.068 129.053 149.027 129.415 148.977 129.676C148.953 129.804 148.923 129.926 148.884 130.023C148.865 130.07 148.834 130.134 148.787 130.191C148.74 130.246 148.636 130.343 148.471 130.343C148.417 130.343 148.367 130.333 148.337 130.326C148.302 130.318 148.263 130.307 148.224 130.295C148.144 130.271 148.046 130.236 147.934 130.194C147.708 130.11 147.408 129.988 147.055 129.839C146.348 129.54 145.415 129.122 144.404 128.649C142.385 127.703 140.036 126.524 138.549 125.6C138.382 125.497 138.331 125.277 138.434 125.111C138.538 124.944 138.757 124.893 138.924 124.996C140.374 125.897 142.691 127.062 144.705 128.005C145.71 128.476 146.635 128.89 147.332 129.185C147.681 129.332 147.97 129.449 148.182 129.529C148.216 129.541 148.247 129.552 148.275 129.563C148.277 129.556 148.278 129.55 148.279 129.543C148.322 129.32 148.361 128.988 148.396 128.568C148.465 127.733 148.515 126.595 148.551 125.397C148.621 123.002 148.634 120.388 148.637 119.513C148.637 119.468 148.611 119.424 148.563 119.401L138.869 114.843C138.692 114.759 138.616 114.547 138.699 114.37ZM148.222 129.764C148.222 129.764 148.222 129.763 148.223 129.762C148.222 129.763 148.222 129.764 148.222 129.764ZM148.502 129.635C148.503 129.635 148.504 129.635 148.504 129.635C148.504 129.635 148.503 129.635 148.502 129.635Z" fill="#CFDAF9"/>
<path d="M85.3665 84.6957H93.3985V86.6182H85.3665V84.6957Z" fill="#781AC9"/>
<path d="M85.3665 87.0455H93.3985V88.0068H85.3665V87.0455Z" fill="#781AC9"/>
<path d="M85.3665 89.9302H96.9423V90.8915H85.3665V89.9302Z" fill="#781AC9"/>
<path d="M118.011 84.6957H126.043V86.6182H118.011V84.6957Z" fill="#781AC9"/>
<path d="M118.011 87.0455H126.043V88.0068H118.011V87.0455Z" fill="#781AC9"/>
<path d="M118.011 89.9302H129.587V90.8915H118.011V89.9302Z" fill="#781AC9"/>
<path d="M56.1322 41.0258H52.0882C51.695 41.0258 51.3862 40.7168 51.3862 40.3238C51.3862 39.9305 51.695 39.6215 52.0882 39.6215H56.1322C56.5252 39.6215 56.8342 39.9305 56.8342 40.3238C56.8342 40.7168 56.5252 41.0258 56.1322 41.0258Z" fill="#4A90E2"/>
<path d="M63.2892 64.107C63.2892 65.7193 61.9823 67.0263 60.3698 67.0263C58.7575 67.0263 57.4505 65.7193 57.4505 64.107C57.4505 62.4945 58.7575 61.1875 60.3698 61.1875C61.9823 61.1875 63.2892 62.4945 63.2892 64.107Z" fill="#781AC9"/>
<path opacity="0.9" d="M181.658 47.0075C181.658 49.8758 179.333 52.2008 176.465 52.2008C173.597 52.2008 171.272 49.8758 171.272 47.0075C171.272 44.1395 173.597 41.8145 176.465 41.8145C179.333 41.8145 181.658 44.1395 181.658 47.0075Z" fill="#4A90E2"/>
<path opacity="0.94" fill-rule="evenodd" clip-rule="evenodd" d="M42.186 53.8418C41.8027 53.7675 41.3617 53.7365 41.003 53.828C40.4427 53.971 39.927 54.3598 39.4995 54.8018C39.0732 55.2423 38.7442 55.7253 38.5562 56.0398C38.522 56.0973 38.4475 56.116 38.3902 56.0815C38.3327 56.0473 38.314 55.9728 38.3482 55.9155C38.5427 55.5903 38.8825 55.0908 39.3252 54.6333C39.7665 54.1773 40.32 53.7523 40.943 53.5933C41.3525 53.4888 41.8345 53.527 42.232 53.604C42.4325 53.6428 42.615 53.6923 42.7612 53.7408C42.904 53.788 43.022 53.8378 43.0865 53.88C43.1425 53.9168 43.158 53.9918 43.1212 54.0478C43.0847 54.1038 43.0095 54.1193 42.9535 54.0828C42.9172 54.0588 42.825 54.0173 42.685 53.9708C42.5485 53.9255 42.376 53.8788 42.186 53.8418Z" fill="white" fill-opacity="0.2"/>
<path fill-rule="evenodd" clip-rule="evenodd" d="M42.2738 63.5633H42.2767C42.2797 63.5633 42.2845 63.563 42.2915 63.563C42.305 63.563 42.326 63.5633 42.3537 63.5645C42.4095 63.567 42.4928 63.573 42.5985 63.5885C42.81 63.6198 43.1118 63.6878 43.4663 63.8365C43.5403 63.8675 43.6255 63.8328 43.6565 63.7588C43.6875 63.6845 43.6528 63.5995 43.5788 63.5685C43.199 63.4093 42.8732 63.3353 42.6405 63.301C42.5242 63.284 42.4312 63.277 42.3662 63.2743C42.3337 63.2728 42.3083 63.2725 42.2905 63.2725C42.2818 63.2725 42.2745 63.2725 42.2695 63.2728L42.2635 63.273H42.2617H42.261H42.2608C42.2608 63.273 42.2605 63.273 42.2673 63.4183L42.2608 63.273C42.1805 63.2768 42.1183 63.3445 42.122 63.4248C42.1255 63.505 42.1935 63.567 42.2738 63.5633L42.2735 63.5635L42.2738 63.5633Z" fill="#131845"/>
<path d="M42.5005 63.4415H42.646H42.7913V63.442V63.4458C42.7913 63.449 42.7915 63.4545 42.7918 63.462C42.7923 63.4765 42.7935 63.4983 42.7958 63.5253C42.8005 63.5795 42.81 63.6538 42.8288 63.7343C42.868 63.902 42.9403 64.0655 43.062 64.1525C43.1273 64.199 43.1425 64.2898 43.0958 64.355C43.049 64.4205 42.9583 64.4355 42.893 64.389C42.6833 64.239 42.5895 63.988 42.5458 63.8003C42.5233 63.7033 42.512 63.6148 42.5063 63.5505C42.5035 63.5183 42.502 63.492 42.5013 63.4733C42.501 63.4638 42.5008 63.4563 42.5008 63.451L42.5005 63.4448V63.4428V63.442V63.4415Z" fill="#131845"/>
<path d="M104.652 63.271C106.615 63.271 106.959 64.2278 106.959 65.847V71.1713C106.959 73.1588 107.45 74.3118 110.026 74.3118C110.271 74.3118 110.394 74.1893 110.394 73.9438V73.306C110.394 73.0605 110.271 72.9378 110.026 72.9378C108.75 72.9378 108.48 72.2508 108.48 71.0733V66.387C108.48 64.4663 108.119 63.148 106.418 62.6468C106.39 62.6385 106.37 62.613 106.37 62.5843C106.37 62.555 106.39 62.5295 106.418 62.5215C108.119 62.044 108.48 60.7255 108.48 58.781V54.0948C108.48 52.917 108.75 52.23 110.026 52.23C110.271 52.23 110.394 52.1073 110.394 51.862V51.224C110.394 50.9788 110.271 50.856 110.026 50.856C107.45 50.856 106.959 52.009 106.959 53.9965V59.3208C106.959 60.9645 106.615 61.897 104.652 61.897C104.407 61.897 104.285 62.0195 104.285 62.265V62.9028C104.285 63.1483 104.407 63.271 104.652 63.271Z" fill="#4A90E2"/>
<path d="M163.877 45.6308C161.914 45.6308 161.57 46.5878 161.57 48.207V53.5313C161.57 55.5185 161.08 56.6718 158.504 56.6718C158.258 56.6718 158.136 56.549 158.136 56.3038V55.6658C158.136 55.4205 158.258 55.2978 158.504 55.2978C159.78 55.2978 160.049 54.6108 160.049 53.433V48.7468C160.049 46.8263 160.411 45.5078 162.112 45.0065C162.14 44.9983 162.16 44.973 162.16 44.944C162.16 44.915 162.139 44.8893 162.111 44.8815C160.411 44.4038 160.049 43.0853 160.049 41.1408V36.4545C160.049 35.2768 159.78 34.5898 158.504 34.5898C158.258 34.5898 158.136 34.4673 158.136 34.2218V33.5838C158.136 33.3385 158.258 33.2158 158.504 33.2158C161.08 33.2158 161.57 34.369 161.57 36.3563V41.6805C161.57 43.3245 161.914 44.2568 163.877 44.2568C164.122 44.2568 164.245 44.3795 164.245 44.6248V45.2628C164.245 45.508 164.122 45.6308 163.877 45.6308Z" fill="#4A90E2"/>
</svg>
