<svg width="200" height="150" viewBox="0 0 200 150" fill="none" xmlns="http://www.w3.org/2000/svg">
<path d="M48.8143 38.7284H17.5179C16.1548 38.7284 15.0371 37.6106 15.0371 36.2476C15.0371 34.8844 16.1548 33.7666 17.5179 33.7666H48.8143C50.1775 33.7666 51.295 34.8844 51.295 36.2476C51.3223 37.6106 50.2048 38.7284 48.8143 38.7284Z" fill="#F2F2F2"/>
<path d="M10.839 131.909C6.58615 131.909 4.21438 119.559 2.6332 115.661C1.65179 113.235 6.42258 112.908 6.20448 112.253C5.00498 108.818 3.9963 105.383 3.6964 102.875C3.342 99.8493 8.98518 105.874 8.93065 102.875C8.87613 98.7316 9.23053 94.9693 10.3483 92.5703C11.9022 94.1788 12.8563 98.5133 13.4288 103.475C13.6469 105.411 17.7907 102.221 17.927 104.211C18.0633 106.338 16.6184 109.636 16.6184 111.463C16.6184 113.289 21.2257 110.808 21.1439 112.09C21.0348 114.025 17.8997 130.11 15.1463 131.146C12.3929 132.182 10.839 131.909 10.839 131.909Z" fill="#A8BBDE"/>
<path d="M68.0338 36.8745C72.2866 36.8745 72.6138 27.7145 72.6138 27.7145C69.6968 28.0962 67.0798 30.9315 67.0798 30.9315C67.0798 30.9315 71.7416 25.3972 67.8703 17.0825C63.4266 21.6625 64.5988 28.8595 64.5988 28.8595C63.5083 25.3427 61.1638 22.9983 61.1638 22.9983C58.4378 28.2052 62.7178 34.5572 62.7178 34.5572C62.7178 34.5572 60.6186 33.8485 59.3101 33.4395C60.1553 37.1742 62.7178 36.8472 62.7178 36.8472L68.0338 36.8745Z" fill="#A8BBDE"/>
<path opacity="0.18" d="M131.008 104.047C131.008 104.047 119.422 105.929 118.632 109.691C117.977 112.744 165.603 111.49 167.566 110.727C170.074 109.745 171.819 107.482 172.173 104.811L131.008 104.047Z" fill="#001C59"/>
<path d="M85.3444 111.872H67.9517V141.396H85.3444V111.872Z" fill="#F2F2F2"/>
<path d="M186.677 6.75049H88.1805C86.2723 6.75049 84.7183 8.30439 84.7183 10.2127V34.2847C84.7183 36.193 86.2723 37.747 88.1805 37.747H186.677C188.585 37.747 190.139 36.193 190.139 34.2847V10.2127C190.139 8.30439 188.585 6.75049 186.677 6.75049Z" fill="#A8BBDE"/>
<path opacity="0.16" d="M159.537 50.5151L141.685 47.8711L135.95 86.5961L153.802 89.2401L159.537 50.5151Z" fill="#3913B8"/>
<path d="M169.693 106.583H130.818C129.373 106.583 128.228 105.411 128.228 103.993V74.4687C128.228 73.0239 129.4 71.8789 130.818 71.8789H169.693C171.138 71.8789 172.283 73.0512 172.283 74.4687V103.966C172.283 105.411 171.138 106.583 169.693 106.583Z" fill="#3913B8"/>
<path opacity="0.72" d="M175.168 60.9421L160.207 50.8501L138.315 83.3036L153.277 93.3956L175.168 60.9421Z" fill="#A8BBDE"/>
<path d="M148.672 52.7231L130.757 54.8924L135.463 93.7544L153.378 91.5851L148.672 52.7231Z" fill="#A8BBDE"/>
<path opacity="0.18" d="M153.39 91.589L135.451 93.77L132.971 73.2417L151.127 72.9692L153.39 91.589Z" fill="#001C59"/>
<path d="M156.853 92.4883L156.716 92.4611L139.051 88.1538L139.078 88.0176L148.374 49.8511L148.511 49.8783L166.176 54.1858L166.149 54.3221L156.853 92.4883ZM139.378 87.9628L156.662 92.1613L165.849 54.3766L148.565 50.1783L139.378 87.9628Z" fill="#00376E"/>
<path d="M152.055 76.9495C151.591 76.9495 151.128 76.895 150.664 76.7857C147.502 76.0225 145.566 72.833 146.33 69.6705C146.711 68.144 147.638 66.8352 149.001 66.0175C150.337 65.1997 151.946 64.9542 153.472 65.336C156.635 66.0992 158.57 69.289 157.807 72.4512C157.125 75.123 154.726 76.9495 152.055 76.9495ZM152.055 65.4177C151.046 65.4177 150.037 65.6902 149.138 66.2355C147.856 67.0262 146.957 68.253 146.602 69.725C146.248 71.1972 146.493 72.6965 147.257 73.978C148.047 75.2592 149.274 76.1587 150.719 76.5132C153.745 77.2492 156.771 75.3955 157.507 72.3695C157.861 70.8972 157.616 69.398 156.853 68.1167C156.062 66.8352 154.835 65.9357 153.391 65.5812C152.954 65.4722 152.491 65.4177 152.055 65.4177Z" fill="#00376E"/>
<path d="M142.486 88.8626L142.213 88.8081L142.567 87.3361C141.777 87.0633 141.286 86.2728 141.422 85.4278L139.787 85.0188L139.841 84.7461L141.722 85.2096L141.695 85.3458C141.613 85.7276 141.668 86.1093 141.859 86.4363C142.049 86.7636 142.377 87.0088 142.758 87.0906L142.895 87.1178L142.486 88.8626Z" fill="#00376E"/>
<path d="M165.358 57.5933L163.641 57.1845L163.668 57.048C163.859 56.2848 163.368 55.4943 162.605 55.3033L162.468 55.276L162.932 53.395L163.204 53.4495L162.796 55.0853C163.586 55.3578 164.077 56.1485 163.941 56.9935L165.413 57.348L165.358 57.5933Z" fill="#00376E"/>
<path d="M149.41 53.6952L147.529 53.2317L147.584 52.9592L149.22 53.368C149.356 52.9865 149.601 52.6592 149.956 52.4412C150.31 52.223 150.719 52.1412 151.128 52.223L151.482 50.751L151.755 50.8055L151.346 52.523L151.21 52.4957C150.828 52.414 150.446 52.4685 150.119 52.6592C149.792 52.85 149.547 53.1772 149.465 53.559L149.41 53.6952Z" fill="#00376E"/>
<path d="M153.881 91.7249L153.609 91.6704L154.072 89.7894L154.209 89.8167C154.59 89.8984 154.972 89.8439 155.299 89.6532C155.626 89.4622 155.871 89.1352 155.953 88.7534L155.981 88.6172L157.698 89.0259L157.643 89.2987L156.171 88.9442C155.899 89.7349 155.108 90.2254 154.263 90.0892L153.881 91.7249Z" fill="#00376E"/>
<path d="M166.803 109.5H127.928C126.483 109.5 125.338 108.327 125.338 106.91V77.4125C125.338 75.9678 126.51 74.8228 127.928 74.8228H166.803C168.248 74.8228 169.393 75.995 169.393 77.4125V106.91C169.393 108.355 168.22 109.5 166.803 109.5Z" fill="#FDD17B"/>
<path opacity="0.18" d="M175.826 94.8603C175.826 96.0053 174.9 96.9323 173.782 96.9323H154.181C153.036 96.9323 152.109 96.0053 152.109 94.8603V87.854C152.109 87.854 152.49 94.7785 155.189 94.9148C160.887 95.1875 175.826 94.8603 175.826 94.8603Z" fill="#001C59"/>
<path opacity="0.18" d="M169.393 106.91C169.393 108.355 168.22 109.5 166.803 109.5H127.928C126.483 109.5 125.338 108.328 125.338 106.91V77.413C125.338 75.968 127.846 105.029 131.962 106.31C136.079 107.619 169.393 106.91 169.393 106.91Z" fill="#001C59"/>
<path d="M173.781 97.0683H154.18C152.981 97.0683 151.972 96.0868 151.972 94.86V87.8538C151.972 86.6543 152.953 85.6455 154.18 85.6455H173.781C174.981 85.6455 175.99 86.627 175.99 87.8538V94.86C175.962 96.0595 174.981 97.0683 173.781 97.0683ZM154.18 85.918C153.117 85.918 152.245 86.7905 152.245 87.8538V94.86C152.245 95.9233 153.117 96.7955 154.18 96.7955H173.781C174.845 96.7955 175.717 95.9233 175.717 94.86V87.8538C175.717 86.7905 174.845 85.918 173.781 85.918H154.18Z" fill="#00376E"/>
<path d="M157.07 93.0335C158.109 93.0335 158.951 92.1915 158.951 91.1525C158.951 90.1137 158.109 89.2715 157.07 89.2715C156.031 89.2715 155.189 90.1137 155.189 91.1525C155.189 92.1915 156.031 93.0335 157.07 93.0335Z" fill="#3913B8"/>
<path d="M189.566 123.539H108.626C106.555 123.539 104.864 121.849 104.864 119.777C104.864 117.705 106.555 116.015 108.626 116.015H189.566C191.638 116.015 193.328 117.705 193.328 119.777C193.356 121.849 191.666 123.539 189.566 123.539Z" fill="#F2F2F2"/>
<path d="M191.829 141.396H106.364C105.519 141.396 104.864 140.714 104.864 139.896V128.174C104.864 127.329 105.546 126.674 106.364 126.674H191.829C192.674 126.674 193.328 127.356 193.328 128.174V139.896C193.356 140.714 192.674 141.396 191.829 141.396Z" fill="#F2F2F2"/>
<path d="M149.11 141.75C153.386 141.75 156.852 138.284 156.852 134.008C156.852 129.732 153.386 126.266 149.11 126.266C144.834 126.266 141.368 129.732 141.368 134.008C141.368 138.284 144.834 141.75 149.11 141.75Z" fill="#3913B8"/>
<path d="M145.485 132.699L149.111 138.152L156.253 127.929C156.444 127.656 156.09 127.356 155.844 127.574L149.083 134.035L145.812 132.318C145.567 132.181 145.321 132.454 145.485 132.699Z" fill="#FDD17B"/>
<path d="M59.5013 140.006H7.62238C5.52323 140.006 3.83301 138.315 3.83301 136.216V131.773C3.83301 129.674 5.52323 127.983 7.62238 127.983H59.5013C61.6005 127.983 63.2908 129.674 63.2908 131.773V136.216C63.2908 138.315 61.6005 140.006 59.5013 140.006Z" fill="#FDD17B"/>
<path d="M122.748 16.7827H90.0068V18.7728H122.748V16.7827Z" fill="#3913B8"/>
<path d="M146.929 16.7827H124.411V18.7728H146.929V16.7827Z" fill="#3913B8"/>
<path d="M184.823 20.4087H145.484V22.3988H184.823V20.4087Z" fill="#3913B8"/>
<path d="M143.658 20.4087H90.061V22.3988H143.658V20.4087Z" fill="#3913B8"/>
<path d="M181.279 31.9677H169.639C169.148 31.9677 168.739 31.5587 168.739 31.0679V29.9229C168.739 29.4322 169.148 29.0234 169.639 29.0234H181.279C181.77 29.0234 182.179 29.4322 182.179 29.9229V31.0679C182.179 31.5859 181.77 31.9677 181.279 31.9677Z" fill="#3913B8"/>
<path d="M165.822 31.9677H154.181C153.69 31.9677 153.281 31.5587 153.281 31.0679V29.9229C153.281 29.4322 153.69 29.0234 154.181 29.0234H165.822C166.312 29.0234 166.721 29.4322 166.721 29.9229V31.0679C166.721 31.5859 166.34 31.9677 165.822 31.9677Z" fill="#FDD17B"/>
<path d="M25.0152 22.2625H12.5567C11.657 22.2625 10.9482 21.5537 10.9482 20.654V8.22271C10.9482 7.32306 11.657 6.61426 12.5567 6.61426H24.988C25.8877 6.61426 26.5965 7.32306 26.5965 8.22271V20.654C26.6237 21.5537 25.8877 22.2625 25.0152 22.2625ZM12.5567 6.88688C11.8206 6.88688 11.2208 7.48663 11.2208 8.22271V20.654C11.2208 21.3901 11.8206 21.9898 12.5567 21.9898H24.988C25.724 21.9898 26.3237 21.3901 26.3237 20.654V8.22271C26.3237 7.48663 25.724 6.88688 24.988 6.88688H12.5567Z" fill="#00376E"/>
<path d="M48.869 38.8646H17.5727C16.1278 38.8646 14.9556 37.6924 14.9556 36.2476C14.9556 34.8026 16.1278 33.6304 17.5727 33.6304H48.869C50.314 33.6304 51.4862 34.8026 51.4862 36.2476C51.4862 37.6924 50.314 38.8646 48.869 38.8646ZM17.5727 33.8759C16.2641 33.8759 15.2282 34.9391 15.2282 36.2204C15.2282 37.5016 16.2914 38.5649 17.5727 38.5649H48.869C50.1777 38.5649 51.2135 37.5016 51.2135 36.2204C51.2135 34.9391 50.1502 33.8759 48.869 33.8759H17.5727Z" fill="#3913B8"/>
<path d="M51.3225 40.0371H15.0371V41.4004H51.3225V40.0371Z" fill="#F2F2F2"/>
<path d="M56.4749 107.019H55.2754V90.498H56.4749C56.8291 90.498 57.1019 90.7708 57.1019 91.125V106.392C57.1019 106.719 56.8291 107.019 56.4749 107.019Z" fill="#FDD17B"/>
<path d="M10.648 36.7383H11.8475V53.2588H10.648C10.2936 53.2588 10.021 52.9863 10.021 52.6318V37.3653C10.021 37.011 10.2936 36.7383 10.648 36.7383Z" fill="#FDD17B"/>
<path d="M42.763 30.3317H23.5708C22.5076 30.3317 21.6353 29.4595 21.6353 28.3962V25.3975H44.726V28.3962C44.726 29.4595 43.8535 30.3317 42.763 30.3317Z" fill="#F2F2F2"/>
<path d="M27.1958 103.665H15.9912V100.776H27.1958V103.665ZM16.2638 103.393H26.9233V101.048H16.2638V103.393Z" fill="#3913B8"/>
<path d="M50.2052 100.912H28.5322V103.529H50.2052V100.912Z" fill="#3913B8"/>
<path d="M27.1962 108.464H15.9917V105.574H27.1962V108.464ZM16.2643 108.191H26.9235V105.847H16.2643V108.191Z" fill="#3913B8"/>
<path d="M50.2052 105.71H28.5322V108.327H50.2052V105.71Z" fill="#3913B8"/>
<path d="M27.1962 113.262H15.9917V110.372H27.1962V113.262ZM16.2643 112.989H26.9235V110.645H16.2643V112.989Z" fill="#3913B8"/>
<path d="M50.2052 110.509H28.5322V113.126H50.2052V110.509Z" fill="#3913B8"/>
<path d="M27.1962 118.06H15.9917V115.17H27.1962V118.06ZM16.2643 117.787H26.9235V115.443H16.2643V117.787Z" fill="#00376E"/>
<path d="M50.3685 118.06H28.3955V115.17H50.3413V118.06H50.3685ZM28.668 117.787H50.0685V115.443H28.668V117.787Z" fill="#00376E"/>
<path d="M37.8827 121.849H14.7649C12.6657 121.849 10.9482 120.132 10.9482 118.033V29.7867C10.9482 27.6877 12.6657 25.9702 14.7649 25.9702H51.5952C53.6945 25.9702 55.412 27.6877 55.412 29.7867V33.7397H55.1395V29.7867C55.1395 27.8512 53.5582 26.2427 51.5952 26.2427H14.7649C12.8293 26.2427 11.2208 27.824 11.2208 29.7867V118.033C11.2208 119.968 12.802 121.577 14.7649 121.577H37.8827V121.849Z" fill="#00376E"/>
<path d="M50.2315 132.754H15.0366V133.026H50.2315V132.754Z" fill="#00376E"/>
<path d="M57.1012 134.989H15.0366V135.262H57.1012V134.989Z" fill="#00376E"/>
<path d="M51.5951 121.85H47.6421V121.577H51.5951C53.5306 121.577 55.1391 119.996 55.1391 118.033V59.6929H55.4118V118.033C55.4118 120.132 53.6943 121.85 51.5951 121.85Z" fill="#00376E"/>
<path d="M50.7776 47.3433H27.9868V56.9668H50.7776V47.3433Z" fill="#3913B8"/>
<path d="M25.3422 57.1025H15.4463V47.2065H25.3422V57.1025ZM15.7189 56.83H25.0697V47.4793H15.7189V56.83Z" fill="#3913B8"/>
<path d="M15.663 47.2539L15.4702 47.4467L25.0892 57.0657L25.282 56.8729L15.663 47.2539Z" fill="#3913B8"/>
<path d="M25.1077 47.2539L15.4888 56.8729L15.6815 57.0657L25.3005 47.4467L25.1077 47.2539Z" fill="#3913B8"/>
<path d="M41.3995 86.7363H27.9595V87.9903H41.3995V86.7363Z" fill="#00376E"/>
<path d="M50.2322 90.498H27.9595V91.234H50.2322V90.498Z" fill="#FDD17B"/>
<path d="M50.2322 91.8613H27.9595V92.5976H50.2322V91.8613Z" fill="#FDD17B"/>
<path d="M50.2322 94.2329H27.9595V94.9689H50.2322V94.2329Z" fill="#FDD17B"/>
<path d="M50.2322 95.5962H27.9595V96.3322H50.2322V95.5962Z" fill="#FDD17B"/>
<path d="M25.8873 96.4688H15.9912V86.5728H25.8873V96.4688ZM16.2638 96.196H25.6145V86.8453H16.2638V96.196Z" fill="#3913B8"/>
<path d="M16.2074 86.6245L16.0146 86.8175L25.6337 96.4365L25.8265 96.2438L16.2074 86.6245Z" fill="#3913B8"/>
<path d="M25.6533 86.6245L16.0342 96.2438L16.227 96.4365L25.846 86.8173L25.6533 86.6245Z" fill="#3913B8"/>
<path d="M51.4588 70.2705H14.9009V60.3745H51.486V70.2705H51.4588ZM15.1735 69.998H51.2135V60.6473H15.1735V69.998Z" fill="#3913B8"/>
<path d="M15.0591 60.3945L14.9893 60.658L51.301 70.2788L51.371 70.0153L15.0591 60.3945Z" fill="#3913B8"/>
<path d="M51.3155 60.3945L15 70.004L15.0697 70.2675L51.3853 60.658L51.3155 60.3945Z" fill="#3913B8"/>
<path d="M61.8455 83.2465H7.04962C6.74974 83.2465 6.50439 83.001 6.50439 82.7013V74.1683C6.50439 73.8685 6.74974 73.623 7.04962 73.623H61.8455C62.1455 73.623 62.3907 73.8685 62.3907 74.1683V82.7013C62.3907 83.001 62.1455 83.2465 61.8455 83.2465Z" fill="#A8BBDE"/>
<path d="M20.7083 76.3491H12.6934V76.6219H20.7083V76.3491Z" fill="#3913B8"/>
<path d="M30.877 78.5029H12.6934V78.7754H30.877V78.5029Z" fill="#3913B8"/>
<path d="M55.2478 78.5029H32.8115V78.7754H55.2478V78.5029Z" fill="#3913B8"/>
<path d="M59.637 80.2476H12.5835V80.5203H59.637V80.2476Z" fill="#3913B8"/>
<path d="M6.50438 82.3473C4.35071 82.3473 2.60596 80.6025 2.60596 78.4488C2.60596 76.295 4.35071 74.5503 6.50438 74.5503C8.65806 74.5503 10.4028 76.295 10.4028 78.4488C10.4028 80.6025 8.65806 82.3473 6.50438 82.3473ZM6.50438 74.7958C4.48701 74.7958 2.87858 76.4313 2.87858 78.4215C2.87858 80.4115 4.51428 82.0473 6.50438 82.0473C8.52173 82.0473 10.1302 80.4115 10.1302 78.4215C10.1302 76.4313 8.52173 74.7958 6.50438 74.7958Z" fill="#00376E"/>
<path d="M73.5956 36.0024H52.2769V38.1832H73.5956V36.0024Z" fill="#3913B8"/>
<path d="M81.1193 40.6367H52.3311V41.6727H81.1193V40.6367Z" fill="#FDD17B"/>
<path d="M81.12 43.8267H49.6055V44.8624H81.12V43.8267Z" fill="#FDD17B"/>
<path d="M73.9496 47.0435H52.3311V48.0795H73.9496V47.0435Z" fill="#FDD17B"/>
<path d="M73.9496 50.2603H52.3311V51.2963H73.9496V50.2603Z" fill="#FDD17B"/>
<path d="M81.1193 53.4497H52.3311V54.4857H81.1193V53.4497Z" fill="#FDD17B"/>
<path d="M70.4056 56.6665H52.3311V57.7025H70.4056V56.6665Z" fill="#FDD17B"/>
<path d="M103.72 113.862H102.356C102.275 113.862 102.22 113.807 102.22 113.725C102.22 113.644 102.275 113.589 102.356 113.589H103.72C103.801 113.589 103.856 113.644 103.856 113.725C103.856 113.807 103.801 113.862 103.72 113.862ZM100.993 113.862H99.6304C99.5484 113.862 99.4939 113.807 99.4939 113.725C99.4939 113.644 99.5484 113.589 99.6304 113.589H100.993C101.075 113.589 101.13 113.644 101.13 113.725C101.13 113.807 101.075 113.862 100.993 113.862ZM98.2672 113.862H96.9042C96.8224 113.862 96.7679 113.807 96.7679 113.725C96.7679 113.644 96.8224 113.589 96.9042 113.589H98.2672C98.3489 113.589 98.4034 113.644 98.4034 113.725C98.4034 113.807 98.3489 113.862 98.2672 113.862ZM95.5412 113.862H94.1779C94.0962 113.862 94.0417 113.807 94.0417 113.725C94.0417 113.644 94.0962 113.589 94.1779 113.589H95.5412C95.6229 113.589 95.6774 113.644 95.6774 113.725C95.6774 113.807 95.6229 113.862 95.5412 113.862ZM92.8149 113.862H91.4519C91.3699 113.862 91.3154 113.807 91.3154 113.725C91.3154 113.644 91.3699 113.589 91.4519 113.589H92.8149C92.8967 113.589 92.9512 113.644 92.9512 113.725C92.9512 113.807 92.8967 113.862 92.8149 113.862ZM90.0887 113.862H88.7257C88.6439 113.862 88.5894 113.807 88.5894 113.725C88.5894 113.644 88.6439 113.589 88.7257 113.589H90.0887C90.1704 113.589 90.2249 113.644 90.2249 113.725C90.2249 113.807 90.1704 113.862 90.0887 113.862ZM87.3627 113.862H85.9994C85.9177 113.862 85.8632 113.807 85.8632 113.725C85.8632 113.644 85.9177 113.589 85.9994 113.589H87.3627C87.4444 113.589 87.4989 113.644 87.4989 113.725C87.4989 113.807 87.4444 113.862 87.3627 113.862ZM84.6364 113.862H83.2734C83.1914 113.862 83.1369 113.807 83.1369 113.725C83.1369 113.644 83.1914 113.589 83.2734 113.589H84.6364C84.7182 113.589 84.7727 113.644 84.7727 113.725C84.7727 113.807 84.7182 113.862 84.6364 113.862ZM81.9102 113.862H80.5472C80.4654 113.862 80.4109 113.807 80.4109 113.725C80.4109 113.644 80.4654 113.589 80.5472 113.589H81.9102C81.9919 113.589 82.0464 113.644 82.0464 113.725C82.0464 113.807 81.9919 113.862 81.9102 113.862ZM79.1842 113.862H77.8209C77.7392 113.862 77.6847 113.807 77.6847 113.725C77.6847 113.644 77.7392 113.589 77.8209 113.589H79.1842C79.2659 113.589 79.3204 113.644 79.3204 113.725C79.3204 113.807 79.2659 113.862 79.1842 113.862ZM76.4579 113.862H75.2584C75.2039 113.862 75.1494 113.862 75.0949 113.862C75.0129 113.862 74.9584 113.807 74.9584 113.725C74.9584 113.644 75.0402 113.589 75.0949 113.589C75.1494 113.589 75.2039 113.589 75.2312 113.589H76.4307C76.5124 113.589 76.5669 113.644 76.5669 113.725C76.5669 113.807 76.5397 113.862 76.4579 113.862ZM73.8134 113.48C73.7862 113.48 73.7589 113.48 73.7317 113.453C73.3229 113.207 72.9684 112.88 72.6957 112.471C72.6412 112.417 72.6684 112.335 72.7232 112.281C72.7777 112.226 72.8594 112.253 72.9139 112.308C73.1592 112.662 73.4592 112.989 73.8407 113.207C73.8954 113.235 73.9227 113.317 73.8954 113.398C73.8954 113.453 73.8407 113.48 73.8134 113.48ZM72.3959 111.272C72.3142 111.272 72.2597 111.217 72.2597 111.136C72.2597 111.027 72.2324 110.945 72.2324 110.836V109.745C72.2324 109.663 72.2869 109.609 72.3687 109.609C72.4504 109.609 72.5049 109.663 72.5049 109.745V110.836C72.5049 110.917 72.5049 111.027 72.5049 111.108C72.5322 111.19 72.4777 111.245 72.3959 111.272ZM72.3687 108.546C72.2869 108.546 72.2324 108.491 72.2324 108.409V107.046C72.2324 106.965 72.2869 106.91 72.3687 106.91C72.4504 106.91 72.5049 106.965 72.5049 107.046V108.409C72.5049 108.464 72.4504 108.546 72.3687 108.546ZM72.3687 105.82C72.2869 105.82 72.2324 105.765 72.2324 105.683V104.32C72.2324 104.238 72.2869 104.184 72.3687 104.184C72.4504 104.184 72.5049 104.238 72.5049 104.32V105.683C72.5049 105.738 72.4504 105.82 72.3687 105.82ZM72.3687 103.093C72.2869 103.093 72.2324 103.039 72.2324 102.957V101.594C72.2324 101.512 72.2869 101.458 72.3687 101.458C72.4504 101.458 72.5049 101.512 72.5049 101.594V102.957C72.5049 103.012 72.4504 103.093 72.3687 103.093ZM72.3687 100.367C72.2869 100.367 72.2324 100.313 72.2324 100.231V98.8678C72.2324 98.786 72.2869 98.7315 72.3687 98.7315C72.4504 98.7315 72.5049 98.786 72.5049 98.8678V100.231C72.5049 100.285 72.4504 100.367 72.3687 100.367ZM72.3687 97.641C72.2869 97.641 72.2324 97.5865 72.2324 97.5048V96.1415C72.2324 96.0598 72.2869 96.0053 72.3687 96.0053C72.4504 96.0053 72.5049 96.0598 72.5049 96.1415V97.5048C72.5049 97.5593 72.4504 97.641 72.3687 97.641ZM72.3687 94.9148C72.2869 94.9148 72.2324 94.8603 72.2324 94.7785V93.4155C72.2324 93.3335 72.2869 93.279 72.3687 93.279C72.4504 93.279 72.5049 93.3335 72.5049 93.4155V94.7785C72.5049 94.833 72.4504 94.9148 72.3687 94.9148ZM72.3687 92.1885C72.2869 92.1885 72.2324 92.134 72.2324 92.0523V90.6893C72.2324 90.6075 72.2869 90.553 72.3687 90.553C72.4504 90.553 72.5049 90.6075 72.5049 90.6893V92.0523C72.5049 92.1068 72.4504 92.1885 72.3687 92.1885ZM72.3687 89.4625C72.2869 89.4625 72.2324 89.408 72.2324 89.3263V87.963C72.2324 87.8813 72.2869 87.8268 72.3687 87.8268C72.4504 87.8268 72.5049 87.8813 72.5049 87.963V89.3263C72.5049 89.3808 72.4504 89.4625 72.3687 89.4625ZM72.3687 86.7363C72.2869 86.7363 72.2324 86.6818 72.2324 86.6V85.237C72.2324 85.155 72.2869 85.1005 72.3687 85.1005C72.4504 85.1005 72.5049 85.155 72.5049 85.237V86.6C72.5049 86.6545 72.4504 86.7363 72.3687 86.7363ZM72.3687 84.01C72.2869 84.01 72.2324 83.9555 72.2324 83.8738V82.5108C72.2324 82.429 72.2869 82.3745 72.3687 82.3745C72.4504 82.3745 72.5049 82.429 72.5049 82.5108V83.8738C72.5049 83.9283 72.4504 84.01 72.3687 84.01ZM72.3687 81.284C72.2869 81.284 72.2324 81.2295 72.2324 81.1478V79.7845C72.2324 79.7028 72.2869 79.6483 72.3687 79.6483C72.4504 79.6483 72.5049 79.7028 72.5049 79.7845V81.1478C72.5049 81.2023 72.4504 81.284 72.3687 81.284ZM72.3687 78.5578C72.2869 78.5578 72.2324 78.5033 72.2324 78.4215V77.0585C72.2324 76.9765 72.2869 76.922 72.3687 76.922C72.4504 76.922 72.5049 76.9765 72.5049 77.0585V78.4215C72.5049 78.476 72.4504 78.5578 72.3687 78.5578ZM72.3687 75.8315C72.2869 75.8315 72.2324 75.777 72.2324 75.6953V74.3323C72.2324 74.2505 72.2869 74.196 72.3687 74.196C72.4504 74.196 72.5049 74.2505 72.5049 74.3323V75.6953C72.5049 75.7498 72.4504 75.8315 72.3687 75.8315ZM72.3687 73.1055C72.2869 73.1055 72.2324 73.051 72.2324 72.9693V71.606C72.2324 71.5243 72.2869 71.4698 72.3687 71.4698C72.4504 71.4698 72.5049 71.5243 72.5049 71.606V72.9693C72.5049 73.0238 72.4504 73.1055 72.3687 73.1055ZM72.3687 70.3793C72.2869 70.3793 72.2324 70.3248 72.2324 70.243V68.88C72.2324 68.798 72.2869 68.7435 72.3687 68.7435C72.4504 68.7435 72.5049 68.798 72.5049 68.88V70.243C72.5049 70.2975 72.4504 70.3793 72.3687 70.3793ZM72.3687 67.653C72.2869 67.653 72.2324 67.5985 72.2324 67.5168V66.1538C72.2324 66.072 72.2869 66.0175 72.3687 66.0175C72.4504 66.0175 72.5049 66.072 72.5049 66.1538V67.5168C72.5049 67.5713 72.4504 67.653 72.3687 67.653ZM72.3687 64.927C72.2869 64.927 72.2324 64.8725 72.2324 64.7908V63.4275C72.2324 63.3458 72.2869 63.2913 72.3687 63.2913C72.4504 63.2913 72.5049 63.3458 72.5049 63.4275V64.7908C72.5049 64.8453 72.4504 64.927 72.3687 64.927ZM72.4777 62.2008H72.4504C72.3687 62.1735 72.3414 62.119 72.3414 62.0373C72.4777 61.5738 72.6957 61.1375 73.0229 60.8105C73.0774 60.756 73.1592 60.756 73.2137 60.8105C73.2682 60.865 73.2682 60.9468 73.2137 61.0013C72.9139 61.3285 72.6957 61.71 72.5867 62.119C72.5867 62.1463 72.5322 62.2008 72.4777 62.2008ZM74.2224 60.2653C74.1679 60.2653 74.1134 60.238 74.0862 60.1835C74.0589 60.1018 74.0862 60.047 74.1679 60.0198C74.4952 59.8835 74.8494 59.829 75.2312 59.829H75.5582C75.6402 59.829 75.6947 59.8835 75.6947 59.9653C75.6947 60.047 75.6402 60.1018 75.5582 60.1018H75.2312C74.9039 60.1018 74.5769 60.1563 74.2769 60.2653C74.2769 60.2653 74.2497 60.2653 74.2224 60.2653ZM83.7639 60.0743H82.4009C82.3192 60.0743 82.2647 60.0198 82.2647 59.938C82.2647 59.8563 82.3192 59.8018 82.4009 59.8018H83.7639C83.8459 59.8018 83.9004 59.8563 83.9004 59.938C83.9004 60.0198 83.8187 60.0743 83.7639 60.0743ZM81.0379 60.0743H79.6747C79.5929 60.0743 79.5384 60.0198 79.5384 59.938C79.5384 59.8563 79.5929 59.8018 79.6747 59.8018H81.0379C81.1197 59.8018 81.1742 59.8563 81.1742 59.938C81.1742 60.0198 81.0924 60.0743 81.0379 60.0743ZM78.3117 60.0743H76.9487C76.8669 60.0743 76.8124 60.0198 76.8124 59.938C76.8124 59.8563 76.8669 59.8018 76.9487 59.8018H78.3117C78.3934 59.8018 78.4479 59.8563 78.4479 59.938C78.4479 60.0198 78.3662 60.0743 78.3117 60.0743Z" fill="#00376E"/>
<path d="M82.3736 67.2441H76.5396V73.0781H82.3736V67.2441Z" fill="#FDD17B"/>
<path d="M80.3013 72.0695L78.7746 69.9702C78.6928 69.8612 78.7201 69.6702 78.8293 69.5885C78.9383 69.5067 79.1291 69.534 79.2108 69.643L80.3831 71.2515L84.5268 67.6802C84.6358 67.5712 84.7996 67.5985 84.9086 67.7075C85.0176 67.8165 84.9903 67.9802 84.8813 68.0892L80.3013 72.0695Z" fill="#3913B8"/>
<path d="M82.3736 78.2578H76.5396V84.0918H82.3736V78.2578Z" fill="#FDD17B"/>
<path d="M80.3013 83.0834L78.7746 80.9844C78.6928 80.8751 78.7201 80.6844 78.8293 80.6026C78.9383 80.5209 79.1291 80.5481 79.2108 80.6571L80.3831 82.2656L84.5268 78.6944C84.6358 78.5854 84.7996 78.6126 84.9086 78.7216C85.0176 78.8306 84.9903 78.9941 84.8813 79.1031L80.3013 83.0834Z" fill="#3913B8"/>
<path d="M82.3736 89.2715H76.5396V95.1055H82.3736V89.2715Z" fill="#FDD17B"/>
<path d="M80.3013 94.0968L78.7746 91.9976C78.6928 91.8886 78.7201 91.6978 78.8293 91.6161C78.9383 91.5343 79.1291 91.5616 79.2108 91.6706L80.3831 93.2788L84.5268 89.7076C84.6358 89.5986 84.7996 89.6258 84.9086 89.7348C85.0176 89.8441 84.9903 90.0076 84.8813 90.1166L80.3013 94.0968Z" fill="#3913B8"/>
<path d="M82.3736 100.285H76.5396V106.119H82.3736V100.285Z" fill="#FDD17B"/>
<path d="M80.3013 105.111L78.7746 103.012C78.6928 102.903 78.7201 102.712 78.8293 102.63C78.9383 102.548 79.1291 102.575 79.2108 102.684L80.3831 104.293L84.5268 100.722C84.6358 100.613 84.7996 100.64 84.9086 100.749C85.0176 100.858 84.9903 101.022 84.8813 101.131L80.3013 105.111Z" fill="#3913B8"/>
<path opacity="0.4" d="M108.981 68.3071H87.2266V72.0146H108.981V68.3071Z" fill="#3913B8"/>
<path d="M109.145 83.1648H87.1177V79.1846H109.145V83.1648ZM87.3629 82.8923H108.845V79.4573H87.3629V82.8923Z" fill="#3913B8"/>
<path d="M109.145 94.179H87.1177V90.1987H109.145V94.179ZM87.3629 93.9062H108.845V90.4712H87.3629V93.9062Z" fill="#3913B8"/>
<path d="M190.275 143.386H165.413V139.406H190.275V143.386ZM165.658 143.113H189.975V139.679H165.658V143.113Z" fill="#3913B8"/>
<path d="M130.354 137.388H113.179V133.408H130.354V137.388ZM113.424 137.116H130.054V133.681H113.424V137.116Z" fill="#3913B8"/>
<path d="M130.354 143.386H108.872V139.406H130.354V143.386ZM109.145 143.113H130.082V139.679H109.145V143.113Z" fill="#3913B8"/>
<path opacity="0.4" d="M108.981 101.349H87.2266V105.056H108.981V101.349Z" fill="#3913B8"/>
<path d="M23.1883 19.1273H14.3828V17.4098C14.3828 16.074 15.446 15.0107 16.7819 15.0107H20.7893C22.1251 15.0107 23.1883 16.074 23.1883 17.4098V19.1273Z" fill="#3913B8"/>
<path d="M18.7718 14.0295C19.9613 14.0295 20.9255 13.0653 20.9255 11.8758C20.9255 10.6864 19.9613 9.72217 18.7718 9.72217C17.5824 9.72217 16.6182 10.6864 16.6182 11.8758C16.6182 13.0653 17.5824 14.0295 18.7718 14.0295Z" fill="#3913B8"/>
<path d="M102.957 48.8424H97.7495L97.3678 45.7347C97.3678 45.1622 96.1138 41.9999 94.5325 42.5724C93.9873 42.7632 93.6603 43.3357 93.6603 43.9082V48.1609C93.6603 49.1152 92.8695 49.9057 91.9155 49.9057H90.416V59.0657H93.6058C94.2328 59.0657 94.8325 59.3109 95.2685 59.7472L95.323 59.8017C96.0048 60.4832 102.52 61.4374 104.101 60.2379C104.729 59.7472 105.219 59.1747 105.219 58.5749V51.1324C105.274 49.8784 104.238 48.8424 102.957 48.8424Z" fill="#3913B8"/>
<path d="M91.8066 48.7881H87.2266V60.2108H91.8066V48.7881Z" fill="#FDD17B"/>
<path d="M188.476 132.836H186.268L186.104 131.527C186.104 131.282 185.586 129.946 184.905 130.191C184.687 130.273 184.523 130.518 184.523 130.764V132.563C184.523 132.972 184.196 133.299 183.787 133.299H183.16V137.17H184.523C184.796 137.17 185.041 137.279 185.232 137.47L185.259 137.497C185.532 137.77 188.312 138.179 188.994 137.688C189.267 137.47 189.485 137.252 189.485 136.979V133.817C189.457 133.272 189.021 132.836 188.476 132.836Z" fill="#00376E"/>
<path d="M183.733 132.808H181.797V137.661H183.733V132.808Z" fill="#00376E"/>
<path d="M81.5286 15.0927C82.1158 15.0927 82.5918 14.6167 82.5918 14.0295C82.5918 13.4423 82.1158 12.9663 81.5286 12.9663C80.9413 12.9663 80.4653 13.4423 80.4653 14.0295C80.4653 14.6167 80.9413 15.0927 81.5286 15.0927Z" fill="#00376E"/>
<path d="M105.682 29.3775C106.028 29.3775 106.309 29.0968 106.309 28.7505C106.309 28.4043 106.028 28.1235 105.682 28.1235C105.336 28.1235 105.055 28.4043 105.055 28.7505C105.055 29.0968 105.336 29.3775 105.682 29.3775Z" fill="#00376E"/>
<path d="M108.3 29.3775C108.646 29.3775 108.927 29.0968 108.927 28.7505C108.927 28.4043 108.646 28.1235 108.3 28.1235C107.954 28.1235 107.673 28.4043 107.673 28.7505C107.673 29.0968 107.954 29.3775 108.3 29.3775Z" fill="#3913B8"/>
<path d="M110.89 29.3775C111.236 29.3775 111.517 29.0968 111.517 28.7505C111.517 28.4043 111.236 28.1235 110.89 28.1235C110.543 28.1235 110.263 28.4043 110.263 28.7505C110.263 29.0968 110.543 29.3775 110.89 29.3775Z" fill="#FDD17B"/>
<path d="M81.5286 28.7507C81.4466 28.7507 81.3921 28.6962 81.3921 28.6145V27.2512C81.3921 27.1695 81.4466 27.115 81.5286 27.115C81.6103 27.115 81.6648 27.1695 81.6648 27.2512V28.6145C81.6648 28.6962 81.5831 28.7507 81.5286 28.7507ZM81.5286 26.0245C81.4466 26.0245 81.3921 25.97 81.3921 25.8882V24.5252C81.3921 24.4434 81.4466 24.3888 81.5286 24.3888C81.6103 24.3888 81.6648 24.4434 81.6648 24.5252V25.8882C81.6648 25.97 81.5831 26.0245 81.5286 26.0245ZM81.5286 23.2984C81.4466 23.2984 81.3921 23.2439 81.3921 23.1621V21.799C81.3921 21.7172 81.4466 21.6627 81.5286 21.6627C81.6103 21.6627 81.6648 21.7172 81.6648 21.799V23.1621C81.6648 23.2439 81.5831 23.2984 81.5286 23.2984ZM81.5286 20.5722C81.4466 20.5722 81.3921 20.5177 81.3921 20.4359V19.0728C81.3921 18.991 81.4466 18.9365 81.5286 18.9365C81.6103 18.9365 81.6648 18.991 81.6648 19.0728V20.4359C81.6648 20.5177 81.5831 20.5722 81.5286 20.5722Z" fill="#00376E"/>
<path d="M81.5282 19.2091C81.4465 19.2091 81.392 19.1546 81.392 19.0728V14.1657H73.2407C73.159 14.1657 73.1045 14.1111 73.1045 14.0294C73.1045 13.9476 73.159 13.8931 73.2407 13.8931H81.6647V19.0728C81.6647 19.1546 81.5827 19.2091 81.5282 19.2091Z" fill="#00376E"/>
<path d="M73.2142 14.1657H72.2057C72.1237 14.1657 72.0692 14.1111 72.0692 14.0294C72.0692 13.9476 72.1237 13.8931 72.2057 13.8931H73.2142C73.2959 13.8931 73.3507 13.9476 73.3507 14.0294C73.3507 14.1111 73.2959 14.1657 73.2142 14.1657ZM70.8424 14.1657H69.4794C69.3977 14.1657 69.3432 14.1111 69.3432 14.0294C69.3432 13.9476 69.3977 13.8931 69.4794 13.8931H70.8424C70.9242 13.8931 70.9787 13.9476 70.9787 14.0294C70.9787 14.1111 70.9242 14.1657 70.8424 14.1657ZM68.1164 14.1657H66.7532C66.6714 14.1657 66.6169 14.1111 66.6169 14.0294C66.6169 13.9476 66.6714 13.8931 66.7532 13.8931H68.1164C68.1982 13.8931 68.2527 13.9476 68.2527 14.0294C68.2527 14.1111 68.1982 14.1657 68.1164 14.1657ZM65.3902 14.1657H64.0272C63.9452 14.1657 63.8907 14.1111 63.8907 14.0294C63.8907 13.9476 63.9452 13.8931 64.0272 13.8931H65.3902C65.4719 13.8931 65.5264 13.9476 65.5264 14.0294C65.5264 14.1111 65.4719 14.1657 65.3902 14.1657ZM62.6639 14.1657H61.3009C61.2192 14.1657 61.1647 14.1111 61.1647 14.0294C61.1647 13.9476 61.2192 13.8931 61.3009 13.8931H62.6639C62.7457 13.8931 62.8002 13.9476 62.8002 14.0294C62.8002 14.1111 62.7457 14.1657 62.6639 14.1657ZM59.9379 14.1657H58.5747C58.4929 14.1657 58.4384 14.1111 58.4384 14.0294C58.4384 13.9476 58.4929 13.8931 58.5747 13.8931H59.9379C60.0197 13.8931 60.0742 13.9476 60.0742 14.0294C60.0742 14.1111 60.0197 14.1657 59.9379 14.1657ZM57.2117 14.1657H55.8487C55.7667 14.1657 55.7122 14.1111 55.7122 14.0294C55.7122 13.9476 55.7667 13.8931 55.8487 13.8931H57.2117C57.2934 13.8931 57.3479 13.9476 57.3479 14.0294C57.3479 14.1111 57.2934 14.1657 57.2117 14.1657ZM54.4854 14.1657H53.1224C53.0407 14.1657 52.9862 14.1111 52.9862 14.0294C52.9862 13.9476 53.0407 13.8931 53.1224 13.8931H54.4854C54.5672 13.8931 54.6217 13.9476 54.6217 14.0294C54.6217 14.1111 54.5672 14.1657 54.4854 14.1657ZM51.7594 14.1657H50.3962C50.3144 14.1657 50.2599 14.1111 50.2599 14.0294C50.2599 13.9476 50.3144 13.8931 50.3962 13.8931H51.7594C51.8412 13.8931 51.8957 13.9476 51.8957 14.0294C51.8957 14.1111 51.8412 14.1657 51.7594 14.1657ZM49.0332 14.1657H47.6702C47.5882 14.1657 47.5337 14.1111 47.5337 14.0294C47.5337 13.9476 47.5882 13.8931 47.6702 13.8931H49.0332C49.1149 13.8931 49.1694 13.9476 49.1694 14.0294C49.1694 14.1111 49.1149 14.1657 49.0332 14.1657ZM46.3069 14.1657H44.9439C44.8622 14.1657 44.8077 14.1111 44.8077 14.0294C44.8077 13.9476 44.8622 13.8931 44.9439 13.8931H46.3069C46.3887 13.8931 46.4432 13.9476 46.4432 14.0294C46.4432 14.1111 46.3887 14.1657 46.3069 14.1657ZM43.5809 14.1657H42.2177C42.1359 14.1657 42.0814 14.1111 42.0814 14.0294C42.0814 13.9476 42.1359 13.8931 42.2177 13.8931H43.5809C43.6627 13.8931 43.7172 13.9476 43.7172 14.0294C43.7172 14.1111 43.6627 14.1657 43.5809 14.1657ZM40.8547 14.1657H39.4917C39.4097 14.1657 39.3552 14.1111 39.3552 14.0294C39.3552 13.9476 39.4097 13.8931 39.4917 13.8931H40.8547C40.9364 13.8931 40.9909 13.9476 40.9909 14.0294C40.9909 14.1111 40.9364 14.1657 40.8547 14.1657ZM38.1284 14.1657H36.7654C36.6837 14.1657 36.6292 14.1111 36.6292 14.0294C36.6292 13.9476 36.6837 13.8931 36.7654 13.8931H38.1284C38.2102 13.8931 38.2649 13.9476 38.2649 14.0294C38.2649 14.1111 38.2102 14.1657 38.1284 14.1657ZM35.4024 14.1657H34.0392C33.9574 14.1657 33.9029 14.1111 33.9029 14.0294C33.9029 13.9476 33.9574 13.8931 34.0392 13.8931H35.4024C35.4842 13.8931 35.5387 13.9476 35.5387 14.0294C35.5387 14.1111 35.4842 14.1657 35.4024 14.1657ZM32.6762 14.1657H31.3132C31.2312 14.1657 31.1767 14.1111 31.1767 14.0294C31.1767 13.9476 31.2312 13.8931 31.3132 13.8931H32.6762C32.7579 13.8931 32.8124 13.9476 32.8124 14.0294C32.8124 14.1111 32.7579 14.1657 32.6762 14.1657ZM29.9499 14.1657H28.5869C28.5052 14.1657 28.4507 14.1111 28.4507 14.0294C28.4507 13.9476 28.5052 13.8931 28.5869 13.8931H29.9499C30.0317 13.8931 30.0864 13.9476 30.0864 14.0294C30.0864 14.1111 30.0317 14.1657 29.9499 14.1657Z" fill="#00376E"/>
<path d="M117.623 44.4803H104.21V32.8941C104.21 32.8123 104.264 32.7578 104.346 32.7578C104.428 32.7578 104.482 32.8123 104.482 32.8941V44.2078H117.623C117.704 44.2078 117.759 44.2623 117.759 44.3441C117.759 44.4258 117.704 44.4803 117.623 44.4803Z" fill="#00376E"/>
<path d="M122.394 46.4707H117.623C117.541 46.4707 117.486 46.4162 117.486 46.3345C117.486 46.2527 117.541 46.1982 117.623 46.1982H122.394C122.475 46.1982 122.53 46.2527 122.53 46.3345C122.53 46.4162 122.475 46.4707 122.394 46.4707Z" fill="#00376E"/>
<path d="M128.827 44.4811H122.393C122.311 44.4811 122.257 44.4266 122.257 44.3446C122.257 44.2628 122.311 44.2083 122.393 44.2083H128.554V30.4686H100.802C100.72 30.4686 100.666 30.4141 100.666 30.3321C100.666 30.2503 100.72 30.1958 100.802 30.1958H128.827V44.4811Z" fill="#00376E"/>
<path d="M97.8584 30.4686H81.6924C81.6106 30.4686 81.5562 30.4141 81.5562 30.3321C81.5562 30.2503 81.6106 30.1958 81.6924 30.1958H97.8584C97.9404 30.1958 97.9949 30.2503 97.9949 30.3321C97.9949 30.4141 97.9131 30.4686 97.8584 30.4686Z" fill="#00376E"/>
<path d="M120.894 33.6304H107.154C107.072 33.6304 107.018 33.5759 107.018 33.4942C107.018 33.4124 107.072 33.3579 107.154 33.3579H120.894C120.976 33.3579 121.03 33.4124 121.03 33.4942C121.03 33.5759 120.976 33.6304 120.894 33.6304Z" fill="#00376E"/>
<path d="M125.556 35.1575H107.264C107.182 35.1575 107.127 35.1028 107.127 35.021C107.127 34.9393 107.182 34.8848 107.264 34.8848H125.556C125.638 34.8848 125.693 34.9393 125.693 35.021C125.693 35.1028 125.638 35.1575 125.556 35.1575Z" fill="#00376E"/>
<path d="M125.556 36.711H107.264C107.182 36.711 107.127 36.6565 107.127 36.5747C107.127 36.493 107.182 36.4385 107.264 36.4385H125.556C125.638 36.4385 125.693 36.493 125.693 36.5747C125.693 36.6565 125.638 36.711 125.556 36.711Z" fill="#00376E"/>
<path d="M122.366 28.8323H113.015C112.933 28.8323 112.879 28.7778 112.879 28.6958C112.879 28.6141 112.933 28.5596 113.015 28.5596H122.366C122.448 28.5596 122.502 28.6141 122.502 28.6958C122.502 28.7778 122.448 28.8323 122.366 28.8323Z" fill="#00376E"/>
<path d="M102.029 119.014H72.3687V120.323H102.029V119.014Z" fill="#00376E"/>
<path d="M102.029 121.713H72.3687V123.021H102.029V121.713Z" fill="#00376E"/>
<path d="M109.008 126.702H72.3687V128.01H109.008V126.702Z" fill="#00376E"/>
<path d="M109.008 129.401H72.3687V130.709H109.008V129.401Z" fill="#00376E"/>
<path d="M197.363 122.095H188.367C188.285 122.095 188.231 122.04 188.231 121.958C188.231 121.876 188.285 121.822 188.367 121.822H197.363C197.445 121.822 197.5 121.876 197.5 121.958C197.5 122.04 197.445 122.095 197.363 122.095Z" fill="#00376E"/>
<path d="M188.312 49.2243H172.664C171.655 49.2243 170.837 48.4066 170.837 47.3978V44.1263C170.837 43.1178 171.655 42.2998 172.664 42.2998H188.312C189.321 42.2998 190.139 43.1178 190.139 44.1263V47.3978C190.139 48.4066 189.321 49.2243 188.312 49.2243Z" fill="#A8BBDE"/>
<path d="M116.15 42.5454H112.743V39.1377H116.15V42.5454ZM112.988 42.2727H115.85V39.4102H112.988V42.2727Z" fill="#00376E"/>
<path d="M120.921 42.545H117.514V39.1372H120.921V42.545ZM117.759 42.2722H120.621V39.4097H117.759V42.2722Z" fill="#00376E"/>
<path d="M125.692 42.5454H122.285V39.1377H125.692V42.5454ZM122.53 42.2727H125.392V39.4102H122.53V42.2727Z" fill="#00376E"/>
<path d="M110.889 39.4097H107.264C107.182 39.4097 107.127 39.3552 107.127 39.2735C107.127 39.1917 107.182 39.1372 107.264 39.1372H110.889C110.971 39.1372 111.026 39.1917 111.026 39.2735C111.026 39.3552 110.971 39.4097 110.889 39.4097Z" fill="#00376E"/>
<path d="M110.889 40.9912H107.263C107.181 40.9912 107.127 40.9367 107.127 40.855C107.127 40.7732 107.181 40.7188 107.263 40.7188H110.889C110.971 40.7188 111.025 40.7732 111.025 40.855C111.025 40.9367 110.971 40.9912 110.889 40.9912Z" fill="#00376E"/>
<path d="M110.889 42.545H107.263C107.181 42.545 107.127 42.4905 107.127 42.4087C107.127 42.327 107.181 42.2725 107.263 42.2725H110.889C110.971 42.2725 111.025 42.327 111.025 42.4087C111.025 42.4905 110.971 42.545 110.889 42.545Z" fill="#00376E"/>
<path d="M122.394 47.5884H117.623C117.541 47.5884 117.486 47.5339 117.486 47.4522C117.486 47.3704 117.541 47.3159 117.623 47.3159H122.394C122.475 47.3159 122.53 47.3704 122.53 47.4522C122.53 47.5339 122.475 47.5884 122.394 47.5884Z" fill="#00376E"/>
<path d="M122.394 49.9327H117.623C117.541 49.9327 117.486 49.8782 117.486 49.7964C117.486 49.7147 117.541 49.6602 117.623 49.6602H122.394C122.475 49.6602 122.53 49.7147 122.53 49.7964C122.53 49.8782 122.475 49.9327 122.394 49.9327Z" fill="#00376E"/>
<path d="M122.394 51.0511H117.623C117.541 51.0511 117.486 50.9966 117.486 50.9148C117.486 50.8328 117.541 50.7783 117.623 50.7783H122.394C122.475 50.7783 122.53 50.8328 122.53 50.9148C122.53 50.9966 122.475 51.0511 122.394 51.0511Z" fill="#00376E"/>
<path d="M115.033 57.8389H110.262C110.18 57.8389 110.126 57.7844 110.126 57.7027C110.126 57.6209 110.18 57.5664 110.262 57.5664H115.033C115.115 57.5664 115.169 57.6209 115.169 57.7027C115.169 57.7844 115.115 57.8389 115.033 57.8389Z" fill="#00376E"/>
<path d="M115.033 58.9568H110.262C110.18 58.9568 110.126 58.9023 110.126 58.8206C110.126 58.7386 110.18 58.6841 110.262 58.6841H115.033C115.115 58.6841 115.169 58.7386 115.169 58.8206C115.169 58.9023 115.115 58.9568 115.033 58.9568Z" fill="#00376E"/>
<path d="M119.231 57.8389H116.342C116.26 57.8389 116.205 57.7844 116.205 57.7027C116.205 57.6209 116.26 57.5664 116.342 57.5664H119.231C119.313 57.5664 119.368 57.6209 119.368 57.7027C119.368 57.7844 119.313 57.8389 119.231 57.8389Z" fill="#00376E"/>
<path d="M119.231 58.9568H116.342C116.26 58.9568 116.205 58.9023 116.205 58.8206C116.205 58.7386 116.26 58.6841 116.342 58.6841H119.231C119.313 58.6841 119.368 58.7386 119.368 58.8206C119.368 58.9023 119.313 58.9568 119.231 58.9568Z" fill="#00376E"/>
<path d="M122.394 60.4834H117.623C117.541 60.4834 117.486 60.4289 117.486 60.3472C117.486 60.2654 117.541 60.2109 117.623 60.2109H122.394C122.475 60.2109 122.53 60.2654 122.53 60.3472C122.53 60.4289 122.475 60.4834 122.394 60.4834Z" fill="#00376E"/>
<path d="M122.394 61.6009H117.623C117.541 61.6009 117.486 61.5464 117.486 61.4646C117.486 61.3829 117.541 61.3281 117.623 61.3281H122.394C122.475 61.3281 122.53 61.3829 122.53 61.4646C122.53 61.5464 122.475 61.6009 122.394 61.6009Z" fill="#00376E"/>
<path d="M116.532 51.0507H110.126V46.1982H116.532V51.0507ZM110.398 50.7782H116.26V46.4707H110.398V50.7782Z" fill="#00376E"/>
<path d="M122.53 55.6852H110.126V53.1499H122.53V55.6852ZM110.398 55.4124H122.257V53.4224H110.398V55.4124Z" fill="#00376E"/>
<path d="M189.375 109.5C189.293 109.5 189.239 109.445 189.239 109.363V54.0496C189.239 53.9676 189.293 53.9131 189.375 53.9131C189.457 53.9131 189.512 53.9676 189.512 54.0496V109.363C189.512 109.418 189.457 109.5 189.375 109.5Z" fill="#00376E"/>
<path d="M189.375 109.364C188.857 109.364 188.448 108.955 188.448 108.464V89.6534C188.448 89.1627 188.857 88.7539 189.348 88.7539H189.375C189.866 88.7539 190.275 89.1627 190.275 89.6534V108.464C190.302 108.955 189.893 109.364 189.375 109.364Z" fill="#FDD17B"/>
<path d="M190.084 54.1858H188.721C188.639 54.1858 188.584 54.1313 188.584 54.0496C188.584 53.9676 188.639 53.9131 188.721 53.9131H190.084C190.166 53.9131 190.22 53.9676 190.22 54.0496C190.22 54.1313 190.166 54.1858 190.084 54.1858Z" fill="#00376E"/>
<path d="M190.112 109.636H188.749C188.667 109.636 188.612 109.581 188.612 109.5C188.612 109.418 188.667 109.363 188.749 109.363H190.112C190.194 109.363 190.248 109.418 190.248 109.5C190.248 109.581 190.194 109.636 190.112 109.636Z" fill="#00376E"/>
<path d="M183.132 121.959C187.385 121.959 187.712 112.799 187.712 112.799C184.795 113.18 182.178 116.016 182.178 116.016C182.178 116.016 186.84 110.481 182.969 102.167C178.525 106.747 179.697 113.944 179.697 113.944C178.607 110.427 176.262 108.082 176.262 108.082C173.536 113.289 177.816 119.641 177.816 119.641C177.816 119.641 175.717 118.933 174.409 118.524C175.254 122.258 177.816 121.931 177.816 121.931L183.132 121.959Z" fill="#A8BBDE"/>
<path d="M46.47 121.113H39.082V125.83H46.47V121.113Z" fill="#A8BBDE"/>
<path d="M19.8077 28.7236H14.2736C14.0282 28.7236 13.8374 28.5326 13.8374 28.2873C13.8374 28.0421 14.0282 27.8511 14.2736 27.8511H19.8077C20.0531 27.8511 20.2439 28.0421 20.2439 28.2873C20.2439 28.5326 20.0531 28.7236 19.8077 28.7236Z" fill="#3913B8"/>
<path d="M52.0581 28.7236H46.5239C46.2786 28.7236 46.0879 28.5326 46.0879 28.2873C46.0879 28.0421 46.2786 27.8511 46.5239 27.8511H52.0581C52.3034 27.8511 52.4944 28.0421 52.4944 28.2873C52.4944 28.5326 52.3034 28.7236 52.0581 28.7236Z" fill="#3913B8"/>
<path d="M14.0829 128.147H5.74079C5.65902 128.147 5.60449 128.092 5.60449 128.01C5.60449 127.929 5.65902 127.874 5.74079 127.874H14.0829C14.1646 127.874 14.2192 127.929 14.2192 128.01C14.2192 128.092 14.1646 128.147 14.0829 128.147Z" fill="#3913B8"/>
<path d="M13.1016 136.707H8.00372C7.70385 136.707 7.4585 136.462 7.4585 136.162V131.064C7.4585 130.764 7.70385 130.519 8.00372 130.519H13.1016C13.4015 130.519 13.6469 130.764 13.6469 131.064V136.162C13.6469 136.462 13.4015 136.707 13.1016 136.707Z" fill="#F2F2F2"/>
<path d="M46.4427 16.1558H28.5317V17.6279H46.4427V16.1558Z" fill="#A8BBDE"/>
<path d="M46.4427 18.6641H28.5317V20.1362H46.4427V18.6641Z" fill="#A8BBDE"/>
<path d="M186.458 122.095H149.9C149.819 122.095 149.764 122.04 149.764 121.958C149.764 121.876 149.819 121.822 149.9 121.822H186.458C186.54 121.822 186.595 121.876 186.595 121.958C186.595 122.04 186.54 122.095 186.458 122.095Z" fill="#00376E"/>
</svg>
