<svg width="1440" height="627" viewBox="0 0 1440 627" fill="none" xmlns="http://www.w3.org/2000/svg">
<path d="M347.011 78.4303C271.342 -91.1283 33.7317 55.0242 -2.9873 137.194V254.224V634.396H1440.57V480.515C1443.07 476.863 1435.76 462.188 1386.49 432.707C1324.9 395.855 1226.76 381.911 1172.69 381.911C1118.61 381.911 1001.94 324.641 961.887 289.283C921.83 253.925 722.966 175.653 600.873 198.647C422.118 232.312 430.13 264.682 347.011 78.4303Z" fill="url(#paint0_linear)"/>
<path d="M768.994 148.37C736.946 173.071 415.467 89.905 380.415 152.155C401.446 198.47 440.417 229.494 445.512 228.35C523.128 210.92 592.731 196.976 617.268 198.968H651.318L680.362 202.454L756.976 213.908L801.042 223.868L860.13 241.796C879.492 247.108 913.209 263.21 923.224 266.198C931.847 268.771 960.78 291.629 970.294 298.269C985.817 308.395 1022.11 333.28 1049.41 344.583C1154.07 387.909 1145.05 382.431 1186.62 382.431C1225.75 382.431 1314.81 402.849 1356.87 418.288C1390.52 430.638 1426.97 462.61 1441 477.052V227.054C1435.82 223.236 1420.36 213.309 1399.93 204.146C1374.4 192.692 1237.69 142.892 1197.63 148.37C1157.57 153.848 1020.87 113.012 961.781 100.562C902.693 88.1115 809.054 117.494 768.994 148.37Z" fill="url(#paint1_linear)"/>
<path d="M1229.68 261.363C1159.97 240.242 990.308 256.215 914.191 266.842L934.723 274.314L967.773 295.235C978.123 301.711 1001.02 316.356 1009.84 323.131C1020.86 331.599 1080.45 358 1086.96 361.985C1092.16 365.173 1136.87 377.593 1158.57 383.404C1163.91 383.238 1185.31 382.308 1228.17 385.895C1281.76 390.378 1322.82 407.314 1365.89 423.753C1400.34 436.903 1429.82 463.271 1440 476.056V367.464C1398.94 340.897 1299.38 282.483 1229.68 261.363Z" fill="url(#paint2_linear)"/>
<path d="M694.93 123.891C614.887 183.277 511.169 86.499 478.623 132.367C452.085 152.309 374.976 140.344 382.987 155.799C394.358 177.736 415.032 238.56 478.623 224.601C520.529 215.401 562.709 181.695 574.259 180.229C625.332 173.748 669.895 168.263 703.943 164.275C737.332 160.364 758.02 154.802 762.526 153.307C766.95 151.838 769.956 147.394 789.564 135.857C811.596 122.894 851.152 109.932 867.675 106.94C892.711 97.4675 939.277 97.6661 950.793 98.6633C962.31 99.6604 1025.4 116.413 1029.91 117.41C1034.41 118.407 1110.52 136.854 1117.03 138.848C1123.54 140.842 1163.09 146.825 1172.61 148.021C1182.16 149.222 1196.64 149.817 1201.15 148.819C1205.66 147.822 1222.18 149.517 1225.68 150.514C1236.7 151.511 1281.76 163.776 1286.27 165.272C1294.28 166.768 1369.89 193.39 1375.4 195.384C1397.43 201.367 1428.64 218.452 1441.99 227.094V195.384C1442.49 195.717 1335.34 137.352 1317.81 126.384C1171.36 34.7239 1021.89 106.94 930.764 73.5365C840.84 40.5744 808.09 39.9346 694.93 123.891Z" fill="url(#paint3_linear)"/>
<defs>
<linearGradient id="paint0_linear" x1="700.014" y1="212.093" x2="700.014" y2="536.591" gradientUnits="userSpaceOnUse">
<stop stop-color="#EA7C84"/>
<stop offset="1" stop-color="#302F51"/>
</linearGradient>
<linearGradient id="paint1_linear" x1="1094.98" y1="16.8969" x2="1117.76" y2="556.245" gradientUnits="userSpaceOnUse">
<stop stop-color="white"/>
<stop offset="1" stop-color="white" stop-opacity="0"/>
</linearGradient>
<linearGradient id="paint2_linear" x1="1440" y1="397.85" x2="914.518" y2="266.035" gradientUnits="userSpaceOnUse">
<stop stop-color="#FF9900"/>
<stop offset="1" stop-color="white" stop-opacity="0.85"/>
</linearGradient>
<linearGradient id="paint3_linear" x1="1268.24" y1="77.5276" x2="449.112" y2="131.533" gradientUnits="userSpaceOnUse">
<stop stop-color="#00E0FF"/>
<stop offset="0.489583" stop-color="#88B8EF" stop-opacity="0.7"/>
<stop offset="1" stop-color="white" stop-opacity="0.72"/>
</linearGradient>
</defs>
</svg>
