<svg width="966" height="421" viewBox="0 0 966 421" fill="none" xmlns="http://www.w3.org/2000/svg">
<path d="M855.242 4.49748C908.091 -11.4249 923.561 24.5415 969.578 41.7624V416.954L0.686523 425C11.4143 420.483 121.255 414.833 146.5 403C214.255 371.24 273.276 371.02 308 349C342.724 326.98 377.468 297.208 403 290C491.505 265.015 512.967 218.286 550.5 210.5C644.5 191 665.638 124.168 724.5 108.5C783.362 92.8317 789.181 24.4004 855.242 4.49748Z" fill="url(#paint0_linear)"/>
<path d="M361.903 350.046C341.238 366.985 237.404 402.133 188.706 417.377H970.425L971.272 114.175C919.185 168.802 809.084 279.751 785.37 286.526C755.727 294.996 701.1 274.246 646.896 258.154C592.693 242.062 387.735 328.873 361.903 350.046Z" fill="url(#paint1_linear)"/>
<path d="M670.5 80C697.3 74 752.667 71.8333 777 71.5C774.5 74.3333 768.7 80.9 765.5 84.5C761.5 89 746.5 99.5 742.5 102C738.5 104.5 721 109.5 707.5 115C694 120.5 684.5 130.5 679 134C673.5 137.5 649.5 159 643 165C636.5 171 622.5 180.5 606.5 190C590.5 199.5 569 206 551 210.5C533 215 525.5 222.5 519 227C512.5 231.5 485.5 251 482 254C478.5 257 447.5 274.5 443.5 276.5C439.5 278.5 394.5 293 383 298.5C371.5 304 318.5 343.5 313.5 347C308.5 350.5 273.5 364 263.5 366.5C253.5 369 197 384 180.5 390C167.3 394.8 106.667 410.333 78 417.5C100.5 406.333 149.1 382.1 163.5 374.5C181.5 365 291 253.5 336 232C381 210.5 415.5 140.5 488.5 128.5C561.5 116.5 637 87.5 670.5 80Z" fill="url(#paint2_linear)"/>
<defs>
<linearGradient id="paint0_linear" x1="969.578" y1="29.4822" x2="969.578" y2="425" gradientUnits="userSpaceOnUse">
<stop stop-color="#C4DEF7"/>
<stop offset="1" stop-color="#2F6292" stop-opacity="0"/>
</linearGradient>
<linearGradient id="paint1_linear" x1="971.272" y1="114.175" x2="971.272" y2="417.377" gradientUnits="userSpaceOnUse">
<stop stop-color="#F81313" stop-opacity="0.49"/>
<stop offset="0.46875" stop-color="#C04C5D" stop-opacity="0.67"/>
<stop offset="1" stop-color="#2A284A" stop-opacity="0.32"/>
</linearGradient>
<linearGradient id="paint2_linear" x1="418" y1="-28.5" x2="427.5" y2="417.5" gradientUnits="userSpaceOnUse">
<stop stop-color="white" stop-opacity="0.8"/>
<stop offset="0.966548" stop-color="#C4C4C4" stop-opacity="0"/>
</linearGradient>
</defs>
</svg>
